<?xml version="1.0" standalone="no"?>
<!DOCTYPE svg PUBLIC "-//W3C//DTD SVG 1.1//EN" "http://www.w3.org/Graphics/SVG/1.1/DTD/svg11.dtd" >
<svg xmlns="http://www.w3.org/2000/svg" xmlns:xlink="http://www.w3.org/1999/xlink" version="1.1">
<metadata></metadata>
<defs>
<font id="heebolight" horiz-adv-x="1136" >
<font-face units-per-em="2048" ascent="1638" descent="-410" />
<missing-glyph horiz-adv-x="499" />
<glyph horiz-adv-x="0" />
<glyph horiz-adv-x="682" />
<glyph unicode=" "  horiz-adv-x="499" />
<glyph unicode="&#x09;" horiz-adv-x="499" />
<glyph unicode="&#xa0;" horiz-adv-x="499" />
<glyph unicode="!" horiz-adv-x="462" d="M154 71q0 33 21.5 56.5t60.5 23.5q38 0 60.5 -23.5t22.5 -56.5q0 -34 -22.5 -56.5t-60.5 -22.5q-39 0 -60.5 22.5t-21.5 56.5zM167 1456h124l-7 -1050h-110z" />
<glyph unicode="&#x22;" horiz-adv-x="589" d="M143 1083l3 307v146h98v-140l-20 -313h-81zM379 1083l3 311v142h97v-140l-20 -313h-80z" />
<glyph unicode="#" horiz-adv-x="1191" d="M85 410v94h273l83 440h-280v96h298l78 416h100l-79 -416h315l78 416h100l-78 -416h228v-96h-246l-84 -440h255v-94h-273l-77 -410h-100l78 410h-314l-77 -410h-100l77 410h-255zM458 504h314l83 440h-314z" />
<glyph unicode="$" d="M116 419h119q0 -129 53 -202t132.5 -102.5t160.5 -29.5q152 0 236.5 80t84.5 194q0 110 -71.5 180.5t-255.5 134.5q-126 41 -217.5 93t-141 130.5t-49.5 197.5q0 164 100.5 265.5t271.5 114.5v202h103v-202q174 -16 271.5 -130.5t97.5 -316.5h-119q0 148 -78 245.5 t-226 97.5q-155 0 -228 -81t-73 -192q0 -74 27 -128.5t98 -99.5t204 -89q125 -42 216 -93.5t140 -129.5t49 -197q0 -167 -104 -266t-279 -114v-189h-102v188q-106 7 -202.5 52t-157 138.5t-60.5 248.5z" />
<glyph unicode="%" horiz-adv-x="1514" d="M110 1099v77q0 83 35 151t98.5 109t150.5 41q88 0 152 -41t99 -109t35 -151v-77q0 -81 -35 -149t-98.5 -109t-150.5 -41q-88 0 -152 41t-99 109t-35 149zM207 1099q0 -80 46 -146t143 -66q95 0 141 65.5t46 146.5v77q0 81 -46.5 147.5t-142.5 66.5q-93 0 -140 -66.5 t-47 -147.5v-77zM360 169l711 1138l74 -48l-711 -1138zM842 279v78q0 82 35 150t99 109t151 41t151 -41t99 -109t35 -150v-78q0 -82 -34.5 -150t-98.5 -109t-150 -41q-88 0 -152.5 41t-99.5 109t-35 150zM939 279q0 -81 46.5 -147t143.5 -66q95 0 140.5 66t45.5 147v78 q0 86 -46.5 149.5t-141.5 63.5q-94 0 -141 -63.5t-47 -149.5v-78z" />
<glyph unicode="&#x26;" horiz-adv-x="1261" d="M108 371q0 131 81.5 227t200.5 187l14 10q-77 95 -121 177.5t-44 172.5q0 153 91 242.5t243 89.5q98 0 168 -39.5t106.5 -104t36.5 -142.5q0 -98 -61.5 -174t-132.5 -132l-131 -100l400 -467q42 68 66.5 152.5t24.5 181.5h111q0 -249 -129 -419l200 -233h-145l-126 146 q-79 -77 -182 -121.5t-218 -44.5q-210 0 -331.5 108t-121.5 283zM228 371q0 -77 36 -143t110 -106.5t187 -40.5q91 0 176.5 39t152.5 109l-406 472q-7 9 -14 16l-47 -36q-86 -70 -127.5 -128t-54.5 -103.5t-13 -78.5zM359 1149q0 -65 35 -136.5t99 -150.5l131 99 q64 47 105.5 101.5t41.5 128.5q0 71 -51 127.5t-147 56.5q-105 0 -159.5 -67t-54.5 -159z" />
<glyph unicode="'" horiz-adv-x="349" d="M120 1090l5 297v149h102v-140l-18 -306h-89z" />
<glyph unicode="(" horiz-adv-x="654" d="M141 573v15q0 196 40.5 365.5t107.5 306t146.5 232t157.5 141.5l29 -82q-89 -62 -172 -199t-136.5 -331.5t-53.5 -428.5v-21q0 -234 53.5 -428.5t136.5 -332.5t172 -203l-29 -77q-78 46 -157.5 139.5t-146.5 228.5t-107.5 305t-40.5 370z" />
<glyph unicode=")" horiz-adv-x="668" d="M33 -393q89 62 172 200.5t136.5 334t53.5 429.5v21q0 234 -55 429.5t-138 334t-169 200.5l29 77q78 -46 157.5 -141.5t146 -232t107.5 -306t41 -365.5v-15q0 -200 -41 -370t-107.5 -305t-146 -228.5t-157.5 -139.5z" />
<glyph unicode="*" horiz-adv-x="869" d="M29 1108l32 101l332 -122l-4 369h105l-9 -372l325 127l33 -102l-333 -114l223 -295l-86 -63l-214 306l-204 -304l-85 61l217 301z" />
<glyph unicode="+" horiz-adv-x="1156" d="M75 628v113h435v465h120v-465h443v-113h-443v-482h-120v482h-435z" />
<glyph unicode="," horiz-adv-x="393" d="M60 -221q46 63 70 125.5t24 141.5v143h118v-140q0 -92 -37.5 -177.5t-103.5 -143.5z" />
<glyph unicode="-" horiz-adv-x="586" d="M49 592v102h480v-102h-480z" />
<glyph unicode="." horiz-adv-x="489" d="M146 73q0 35 22.5 59t61.5 24q40 0 63 -24t23 -59t-23 -58t-63 -23q-39 0 -61.5 23t-22.5 58z" />
<glyph unicode="/" horiz-adv-x="814" d="M30 -125l608 1581h109l-608 -1581h-109z" />
<glyph unicode="0" d="M120 607v246q0 320 118.5 472t328.5 152q211 0 329.5 -152t118.5 -472v-246q0 -320 -117 -473.5t-329 -153.5q-209 0 -329 153.5t-120 473.5zM240 594q0 -245 83.5 -379t245.5 -134q165 0 246 134t81 379v274q0 249 -82.5 378t-246.5 129q-162 0 -244.5 -129t-82.5 -378 v-274z" />
<glyph unicode="1" d="M179 1165v113l495 184h20v-1462h-120v1312z" />
<glyph unicode="2" d="M105 1037q0 120 53.5 220t154 159.5t240.5 59.5q196 0 310 -103.5t114 -286.5q0 -88 -40.5 -177t-106 -177t-139.5 -172l-407 -459h766v-101h-913v93l477 540q134 152 188.5 251.5t54.5 190.5q0 132 -78 216t-226 84q-152 0 -240 -96t-88 -242h-120z" />
<glyph unicode="3" d="M99 395h120q0 -139 96.5 -226.5t249.5 -87.5q155 0 241.5 80.5t86.5 230.5q0 158 -102 228.5t-265 70.5h-122v103h122q167 0 253.5 83t86.5 200q0 131 -74.5 214.5t-231.5 83.5q-137 0 -228.5 -81t-91.5 -220h-119q0 119 57 209.5t156.5 141.5t225.5 51q192 0 308.5 -105 t116.5 -298q0 -98 -63 -189.5t-186 -137.5q144 -39 210 -134t66 -216q0 -133 -58 -225.5t-159.5 -141.5t-229.5 -49q-118 0 -224.5 46t-174 138.5t-67.5 230.5z" />
<glyph unicode="4" d="M68 368v69l673 1019h131v-986h227v-102h-227v-368h-120v368h-684zM214 470h538v832l-53 -93z" />
<glyph unicode="5" d="M168 383h115q17 -147 101.5 -224.5t227.5 -77.5q155 0 234.5 99.5t79.5 281.5q0 154 -85.5 258t-246.5 104q-104 0 -165.5 -28t-114.5 -76l-95 27l71 709h728v-110h-625l-52 -493q38 27 110.5 53.5t163.5 26.5q195 0 313.5 -125.5t118.5 -343.5q0 -139 -46 -248.5 t-142 -172.5t-247 -63q-116 0 -212.5 44t-158 133.5t-73.5 225.5z" />
<glyph unicode="6" d="M130 515v128q0 249 76 434t230.5 287.5t389.5 102.5h17v-104h-17q-261 0 -409 -155.5t-165 -426.5q60 83 154 129t208 46q139 0 232 -66t140 -175t47 -237q0 -140 -52 -253t-148.5 -179t-230.5 -66q-147 0 -252.5 72.5t-162.5 194t-57 268.5zM250 513q0 -135 47 -231.5 t126.5 -148t178.5 -51.5q97 0 167 53t107.5 141.5t37.5 196.5q0 103 -35 189.5t-105.5 139t-178.5 52.5q-79 0 -150 -32t-122.5 -86.5t-72.5 -121.5v-101z" />
<glyph unicode="7" d="M77 1355v101h958v-68l-623 -1388h-124l617 1355h-828z" />
<glyph unicode="8" d="M106 386q0 128 75 223.5t199 138.5q-108 43 -172.5 130.5t-64.5 203.5q0 126 56 214t152 134t217 46t218 -46t153 -134t56 -214q0 -116 -65.5 -203.5t-172.5 -130.5q123 -43 199.5 -138.5t76.5 -223.5q0 -132 -61.5 -222.5t-166.5 -137t-235 -46.5q-131 0 -236 46.5 t-166.5 137t-61.5 222.5zM226 386q0 -146 96.5 -225.5t247.5 -79.5q150 0 246.5 79.5t96.5 225.5q0 93 -45 163t-123 108.5t-177 38.5q-149 0 -245.5 -85t-96.5 -225zM263 1083q0 -131 86 -208t220 -77q132 0 219.5 77t87.5 208q0 84 -40.5 150t-110 104t-157.5 38 q-133 0 -219 -78.5t-86 -213.5z" />
<glyph unicode="9" d="M102 965q0 140 52 256t150.5 185.5t236.5 69.5q157 0 259.5 -74.5t153.5 -205.5t51 -300v-117q0 -162 -32.5 -305t-109 -252t-207.5 -171t-328 -62h-27l1 104h26q205 0 326 76.5t174.5 208t56.5 297.5q-59 -88 -154.5 -143t-210.5 -55q-137 0 -230 70t-140.5 181.5 t-47.5 236.5zM219 970q0 -99 36.5 -188.5t106.5 -145.5t172 -56q92 0 163 37.5t118.5 96.5t70.5 124v69q0 230 -96 348.5t-247 118.5q-101 0 -173.5 -56t-111.5 -148t-39 -200z" />
<glyph unicode=":" horiz-adv-x="430" d="M126 73q0 35 22.5 59t61.5 24q40 0 63 -24t23 -59t-23 -58t-63 -23q-39 0 -61.5 23t-22.5 58zM129 996q0 35 22.5 59t61.5 24q40 0 63 -24t23 -59t-23 -58t-63 -23q-39 0 -61.5 23t-22.5 58z" />
<glyph unicode=";" horiz-adv-x="399" d="M60 -221q46 63 70 125.5t24 141.5v143h118v-140q0 -92 -37.5 -177.5t-103.5 -143.5zM118 996q0 35 22.5 59t61.5 24q40 0 63 -24t23 -59t-23 -58t-63 -23q-39 0 -61.5 23t-22.5 58z" />
<glyph unicode="&#x3c;" horiz-adv-x="1047" d="M77 608v97l828 378v-125l-696 -303l696 -299v-127z" />
<glyph unicode="=" horiz-adv-x="1133" d="M149 418v106h834v-106h-834zM149 829v106h834v-106h-834z" />
<glyph unicode="&#x3e;" horiz-adv-x="1062" d="M124 232v124l711 304l-711 302v123l845 -378v-96z" />
<glyph unicode="?" horiz-adv-x="930" d="M84 1116q2 114 54.5 194.5t140 123t193.5 42.5q179 0 275.5 -103.5t96.5 -269.5q0 -133 -65.5 -230t-169.5 -192q-65 -54 -89 -125t-24 -151h-120q1 85 16.5 144t51.5 109t97 110q53 53 94.5 98.5t65 100t23.5 135.5q0 119 -63.5 193.5t-188.5 74.5q-116 0 -191.5 -67.5 t-76.5 -186.5h-120zM360 71q0 33 22 56.5t60 23.5q39 0 61 -23.5t22 -56.5q0 -34 -22 -56.5t-61 -22.5q-38 0 -60 22.5t-22 56.5z" />
<glyph unicode="@" horiz-adv-x="1871" d="M122 478q12 280 122 492.5t299.5 331.5t441.5 119q266 0 440 -111t256 -315t70 -482q-3 -94 -26.5 -188.5t-70 -172.5t-119 -125t-173.5 -47q-97 0 -158 52t-81 144q-54 -97 -131 -146.5t-168 -49.5q-142 0 -210 123t-50 324q16 172 78 298t155.5 195t201.5 69 q101 0 159 -32.5t110 -76.5l-50 -569q-9 -107 17 -159.5t66.5 -69t72.5 -16.5q89 0 150.5 59t95 160.5t38.5 227.5q13 252 -54 434.5t-221 281t-402 98.5q-215 0 -381.5 -105t-266 -296t-111.5 -448q-12 -248 64 -438t232.5 -297t384.5 -107q88 0 178.5 21.5t152.5 57.5 l30 -79q-66 -44 -170 -66.5t-195 -22.5q-253 0 -431 113t-268 322t-78 496zM671 427q-16 -155 28 -252t147 -97q72 0 147 52.5t126 201.5l45 516q-30 22 -69.5 36t-89.5 14q-120 0 -215.5 -116t-118.5 -355z" />
<glyph unicode="A" horiz-adv-x="1280" d="M31 0l550 1456h117l551 -1456h-128l-150 408h-662l-150 -408h-128zM348 513h584l-292 793z" />
<glyph unicode="B" horiz-adv-x="1255" d="M185 0v1456h430q221 0 348 -91t127 -289q0 -112 -61 -196t-169 -121q129 -27 205.5 -124.5t76.5 -224.5q0 -199 -128.5 -304.5t-336.5 -105.5h-492zM308 104h369q160 0 251 81.5t91 222.5q0 124 -81 208.5t-252 84.5h-378v-597zM308 804h319q162 0 250.5 69.5t88.5 205.5 q0 272 -351 272h-307v-547z" />
<glyph unicode="C" horiz-adv-x="1330" d="M132 636v183q0 197 68 344.5t193 230t295 82.5q233 0 369 -125.5t158 -349.5h-123q-22 177 -119 273.5t-285 96.5q-135 0 -232 -68.5t-149 -192.5t-52 -289v-185q0 -160 50 -284.5t144.5 -196t229.5 -71.5q194 0 291.5 93t121.5 277h123q-23 -222 -159 -348t-377 -126 q-165 0 -288 82t-191 230t-68 344z" />
<glyph unicode="D" horiz-adv-x="1342" d="M185 0v1456h407q181 0 321.5 -82t220 -231t79.5 -348v-134q0 -200 -79.5 -348.5t-221.5 -230.5t-329 -82h-398zM308 104h275q156 0 270 70.5t176 196t62 290.5v136q0 168 -62 292.5t-174.5 193t-262.5 68.5h-284v-1247z" />
<glyph unicode="E" horiz-adv-x="1165" d="M185 0v1456h900v-105h-777v-548h680v-105h-680v-594h782v-104h-905z" />
<glyph unicode="F" horiz-adv-x="1152" d="M185 0v1456h902v-105h-779v-565h678v-106h-678v-680h-123z" />
<glyph unicode="G" horiz-adv-x="1401" d="M145 645v177q0 200 68.5 347t195 227t301.5 80q162 0 273 -56.5t173 -153.5t78 -220h-123q-14 87 -58.5 161t-128 119t-214.5 45q-142 0 -240.5 -68.5t-149.5 -191.5t-51 -287v-179q0 -170 57.5 -296t161 -195.5t242.5 -69.5q167 0 259 44t124 83v377h-391v104h513v-519 q-25 -36 -86 -81.5t-164 -78.5t-256 -33q-171 0 -303 81.5t-206.5 231t-74.5 352.5z" />
<glyph unicode="H" horiz-adv-x="1449" d="M185 0v1456h123v-653h832v653h123v-1456h-123v698h-832v-698h-123z" />
<glyph unicode="I" horiz-adv-x="546" d="M212 0v1456h123v-1456h-123z" />
<glyph unicode="J" horiz-adv-x="1128" d="M72 402h123q0 -158 83.5 -238t232.5 -80q133 0 225 89t92 261v1022h123v-1022q0 -147 -57 -248t-156.5 -153.5t-226.5 -52.5q-196 0 -317.5 103.5t-121.5 318.5z" />
<glyph unicode="K" horiz-adv-x="1292" d="M185 0v1456h123v-783l198 206l547 577h156l-611 -648l658 -808h-150l-593 723l-205 -201v-522h-123z" />
<glyph unicode="L" horiz-adv-x="1080" d="M185 0v1456h123v-1352h719v-104h-842z" />
<glyph unicode="M" horiz-adv-x="1772" d="M185 0v1456h162l538 -1285l539 1285h163v-1456h-123v637l11 648l-543 -1285h-94l-541 1281l10 -644v-637h-122z" />
<glyph unicode="N" horiz-adv-x="1455" d="M185 0v1456h123l839 -1246v1246h122v-1456h-124l-837 1246v-1246h-123z" />
<glyph unicode="O" horiz-adv-x="1387" d="M126 650v156q0 204 71 354.5t198.5 233t296.5 82.5q173 0 300.5 -82.5t197.5 -233t70 -354.5v-156q0 -204 -69.5 -354.5t-196.5 -233t-300 -82.5q-169 0 -297 82.5t-199.5 233t-71.5 354.5zM249 650q0 -260 119.5 -411.5t325.5 -151.5q212 0 328 151.5t116 411.5v158 q0 258 -117.5 409t-328.5 151q-206 0 -324.5 -151t-118.5 -409v-158z" />
<glyph unicode="P" horiz-adv-x="1261" d="M185 0v1456h496q240 0 365 -120.5t125 -313.5q0 -202 -125 -315.5t-365 -113.5h-373v-593h-123zM308 698h373q195 0 281 92.5t86 229.5q0 89 -37.5 164.5t-118.5 121t-211 45.5h-373v-653z" />
<glyph unicode="Q" horiz-adv-x="1387" d="M121 650v156q0 204 71 354.5t198.5 233t297.5 82.5q173 0 300.5 -82.5t197.5 -233t70 -354.5v-156q0 -211 -74.5 -364.5t-207.5 -232.5l264 -231l-84 -77l-296 258q-79 -23 -168 -23q-170 0 -298 82.5t-199.5 233t-71.5 354.5zM245 650q0 -260 119.5 -411.5t325.5 -151.5 q212 0 327.5 151.5t115.5 411.5v158q0 258 -117 409t-328 151q-206 0 -324.5 -151t-118.5 -409v-158z" />
<glyph unicode="R" horiz-adv-x="1301" d="M182 0v1456h473q227 0 360.5 -110t133.5 -318q0 -145 -83.5 -250.5t-217.5 -144.5l364 -620v-13h-132l-351 607h-424v-607h-123zM305 711h377q114 0 190.5 44.5t115 117t38.5 155.5q0 149 -95.5 236t-275.5 87h-350v-640z" />
<glyph unicode="S" horiz-adv-x="1213" d="M89 416h123q0 -123 63.5 -195.5t160.5 -104.5t196 -32q172 0 274.5 75.5t102.5 198.5q0 81 -36.5 138t-123.5 101.5t-238 87.5q-146 41 -253 93.5t-165 129.5t-58 192q0 112 62.5 197t172.5 132t254 47q153 0 265 -58t173 -157t61 -220h-123q0 142 -98.5 236t-277.5 94 q-180 0 -272.5 -79t-92.5 -189q0 -105 85 -178t305 -132q232 -63 358 -159.5t126 -273.5q0 -118 -65 -203.5t-178 -131t-258 -45.5q-97 0 -193.5 25t-175.5 77.5t-126.5 135.5t-47.5 198z" />
<glyph unicode="T" horiz-adv-x="1223" d="M53 1351v105h1119v-105h-499v-1351h-122v1351h-498z" />
<glyph unicode="U" horiz-adv-x="1347" d="M163 470v986h122v-986q0 -191 110 -288.5t280 -97.5t279.5 97.5t109.5 288.5v986h123v-986q0 -164 -69 -272.5t-185.5 -163t-257.5 -54.5q-146 0 -261.5 54.5t-183 163t-67.5 272.5z" />
<glyph unicode="V" horiz-adv-x="1264" d="M32 1456h134l457 -1275l9 -32l8 32l459 1275h134l-542 -1456h-118z" />
<glyph unicode="W" horiz-adv-x="1836" d="M61 1456h126l266 -1063l46 -225l55 216l316 1072h111l311 -1072l55 -218l47 228l263 1062h126l-372 -1456h-118l-331 1139l-36 144l-37 -144l-337 -1139h-118z" />
<glyph unicode="X" horiz-adv-x="1254" d="M56 0l497 739l-482 717h147l410 -616l409 616h147l-482 -717l497 -739h-147l-424 636l-426 -636h-146z" />
<glyph unicode="Y" horiz-adv-x="1227" d="M24 1456h146l441 -794l445 794h142l-525 -907v-549h-124v549z" />
<glyph unicode="Z" horiz-adv-x="1225" d="M91 0v93l864 1259h-838v104h989v-88l-866 -1264h898v-104h-1047z" />
<glyph unicode="[" horiz-adv-x="491" d="M164 -312v1976h330v-101h-211v-1774h211v-101h-330z" />
<glyph unicode="\" horiz-adv-x="807" d="M49 1456h117l608 -1581h-117z" />
<glyph unicode="]" horiz-adv-x="491" d="M1 -211h210v1774h-210v101h330v-1976h-330v101z" />
<glyph unicode="^" horiz-adv-x="853" d="M78 729l299 727h89l299 -727h-117l-227 570l-228 -570h-115z" />
<glyph unicode="_" horiz-adv-x="885" d="M1 0h882v-101h-882v101z" />
<glyph unicode="`" horiz-adv-x="585" d="M103 1536h145l191 -279h-109z" />
<glyph unicode="a" horiz-adv-x="1098" d="M100 287q0 159 132.5 251t361.5 92h221v122q0 116 -72 183t-207 67q-126 0 -208 -64t-82 -155l-120 1q0 81 52.5 154t146 118.5t216.5 45.5q173 0 283.5 -88t110.5 -264v-523q0 -56 8.5 -116t24.5 -99v-12h-128q-10 28 -16 68.5t-8 82.5q-54 -69 -146 -120t-220 -51 q-159 0 -254.5 87.5t-95.5 219.5zM220 298q0 -89 65.5 -150.5t177.5 -61.5q130 0 221.5 62t130.5 151v239h-205q-184 0 -287 -64.5t-103 -175.5z" />
<glyph unicode="b" horiz-adv-x="1135" d="M155 0v1536h120v-610q54 83 137.5 129.5t200.5 46.5q198 0 306.5 -149.5t108.5 -401.5v-21q0 -162 -49 -286t-141 -194t-223 -70q-118 0 -203.5 45.5t-138.5 123.5l-6 -149h-112zM275 288q38 -86 115 -145t202 -59q109 0 178.5 59t103 160t33.5 227v21q0 126 -32.5 227 t-102.5 160.5t-182 59.5q-135 0 -208 -67.5t-107 -152.5v-490z" />
<glyph unicode="c" horiz-adv-x="1056" d="M95 520v42q0 152 52 274.5t154.5 194t253.5 71.5q116 0 208.5 -47t148.5 -133.5t61 -203.5h-115q-8 131 -94 207t-209 76t-198 -62t-109 -162t-34 -215v-42q0 -116 34 -216t109 -161.5t199 -61.5q76 0 142.5 29t110 85.5t49.5 139.5h115q-6 -103 -63.5 -183.5t-150 -126 t-203.5 -45.5q-151 0 -254 71.5t-155 194t-52 274.5z" />
<glyph unicode="d" horiz-adv-x="1138" d="M109 530v21q0 168 50.5 291.5t144.5 191.5t223 68q114 0 196.5 -45t136.5 -126v605h120v-1536h-112l-6 145q-53 -77 -137 -121t-200 -44q-128 0 -221.5 70t-144 194t-50.5 286zM229 530q0 -126 34 -227t104.5 -160t179.5 -59q122 0 197.5 55.5t115.5 139.5v511 q-35 82 -108 145t-203 63q-110 0 -181 -59.5t-105 -160.5t-34 -227v-21z" />
<glyph unicode="e" horiz-adv-x="1059" d="M90 511v43q0 167 64.5 290t170 190.5t228.5 67.5q138 0 233.5 -63.5t145.5 -175.5t50 -256v-73h-772v-23q0 -120 46.5 -217.5t130 -155t193.5 -57.5q96 0 170 35.5t133 112.5l76 -57q-54 -79 -146 -135.5t-238 -56.5q-141 0 -250.5 68.5t-172 188t-62.5 274.5zM214 635 h648v14q-2 90 -37 170.5t-102.5 131t-169.5 50.5q-136 0 -227.5 -100.5t-111.5 -265.5z" />
<glyph unicode="f" horiz-adv-x="678" d="M64 984v98h179v135q0 164 85 252t234 88q31 0 64 -4t64 -13l-9 -99q-25 5 -50.5 8t-59.5 3q-97 0 -153 -61.5t-56 -173.5v-135h259v-98h-259v-984h-119v984h-179z" />
<glyph unicode="g" horiz-adv-x="1137" d="M109 530v21q0 252 111 401.5t307 149.5q116 0 199 -46.5t137 -128.5l5 155h112v-1063q0 -212 -118.5 -331.5t-315.5 -119.5q-101 0 -206 46.5t-171 138.5l67 73q66 -81 140.5 -119t162.5 -38q153 0 237 91.5t84 254.5v126q-54 -75 -137.5 -118t-197.5 -43 q-129 0 -222.5 70t-143.5 194t-50 286zM229 530q0 -126 34 -227t104.5 -160t179.5 -59q123 0 198.5 57t114.5 142v502q-34 83 -106.5 148t-204.5 65q-110 0 -181 -59.5t-105 -160.5t-34 -227v-21z" />
<glyph unicode="h" horiz-adv-x="1125" d="M156 0v1536h120v-635q56 91 146 146t205 55q162 0 254 -92t92 -306v-704h-120v705q0 168 -68.5 231t-185.5 63q-85 0 -149 -37t-107.5 -95.5t-66.5 -123.5v-743h-120z" />
<glyph unicode="i" horiz-adv-x="460" d="M150 1395q0 34 21.5 57.5t59.5 23.5q39 0 61 -23.5t22 -57.5q0 -33 -22 -56t-61 -23q-38 0 -59.5 23t-21.5 56zM171 0v1082h119v-1082h-119z" />
<glyph unicode="j" horiz-adv-x="468" d="M-104 -418l2 99q17 -5 42 -9.5t48 -4.5q85 0 131.5 51t46.5 153v1211h120v-1211q0 -149 -73 -228.5t-211 -79.5q-56 0 -106 19zM145 1395q0 34 21.5 57.5t60.5 23.5q38 0 60.5 -23.5t22.5 -57.5q0 -33 -22.5 -56t-60.5 -23q-39 0 -60.5 23t-21.5 56z" />
<glyph unicode="k" horiz-adv-x="1004" d="M157 0v1536h119v-982l114 121l413 407h152l-459 -456l499 -626h-144l-438 545l-137 -131v-414h-119z" />
<glyph unicode="l" horiz-adv-x="460" d="M171 0v1536h119v-1536h-119z" />
<glyph unicode="m" horiz-adv-x="1816" d="M150 0v1082h115l4 -175q54 88 142.5 141.5t208.5 53.5q119 0 203.5 -49.5t120.5 -159.5q52 91 146 150t224 59q169 0 261.5 -93.5t92.5 -303.5v-705h-120v706q0 115 -33 178.5t-92.5 89t-137.5 25.5q-101 -1 -169 -45.5t-105 -109t-43 -127.5v-717h-120v716 q0 161 -73 222t-190 61q-90 0 -153 -36.5t-102.5 -95t-59.5 -123.5v-744h-120z" />
<glyph unicode="n" horiz-adv-x="1126" d="M156 0v1082h115l4 -183q56 92 146 147.5t206 55.5q162 0 254 -92t92 -306v-704h-120v705q0 168 -68.5 231t-185.5 63q-85 0 -149 -37t-107.5 -95.5t-66.5 -123.5v-743h-120z" />
<glyph unicode="o" horiz-adv-x="1148" d="M91 524v33q0 158 60 281t168 193.5t254 70.5q147 0 255.5 -70.5t168.5 -193.5t60 -281v-33q0 -157 -59.5 -280t-168 -193.5t-254.5 -70.5q-147 0 -255.5 70.5t-168.5 193.5t-60 280zM211 524q0 -118 42 -219t123 -162.5t199 -61.5q117 0 197.5 61.5t122.5 162.5t42 219 v33q0 117 -42 218t-123 163.5t-199 62.5q-117 0 -198 -62.5t-122.5 -163.5t-41.5 -218v-33z" />
<glyph unicode="p" horiz-adv-x="1135" d="M155 -416v1498h112l6 -153q55 81 139 127t200 46q198 0 306.5 -149.5t108.5 -401.5v-21q0 -162 -48.5 -286t-141 -194t-223.5 -70q-115 0 -199.5 42t-139.5 114v-552h-120zM275 271q40 -82 115.5 -136t196.5 -54q109 0 179.5 60t105 161.5t34.5 227.5v21q0 126 -34.5 227 t-105.5 160.5t-181 59.5q-129 0 -202 -62.5t-108 -143.5v-521z" />
<glyph unicode="q" horiz-adv-x="1143" d="M109 530v21q0 252 110.5 401.5t308.5 149.5q113 0 196 -44t138 -122l5 146h112v-1498h-120v550q-54 -72 -137.5 -113t-195.5 -41q-131 0 -224.5 70t-143 194t-49.5 286zM229 530q0 -126 34.5 -227.5t105.5 -161.5t180 -60q118 0 194 53.5t116 134.5v530 q-36 79 -109.5 140.5t-198.5 61.5q-110 0 -181.5 -60t-106 -162t-34.5 -228v-21z" />
<glyph unicode="r" horiz-adv-x="690" d="M156 0v1082h117l3 -170q44 88 119.5 139t184.5 51q22 0 45 -4t34 -8l-3 -109q-41 7 -80 7q-121 0 -195.5 -68t-104.5 -174v-746h-120z" />
<glyph unicode="s" horiz-adv-x="1038" d="M102 304h119q6 -85 53 -133.5t115 -69t136 -20.5q137 0 208.5 59.5t71.5 135.5q0 44 -22.5 87t-84.5 79t-183 62q-180 38 -278.5 104.5t-98.5 199.5q0 80 46.5 147t132 107t202.5 40q188 0 294 -92t106 -231h-121q0 84 -72 153t-207 69q-93 0 -151 -28.5t-84.5 -72 t-26.5 -88.5q0 -48 22 -85.5t84 -67.5t183 -58q196 -45 287.5 -117.5t91.5 -201.5q0 -134 -108.5 -218t-291.5 -84q-137 0 -231.5 45.5t-143 119.5t-48.5 159z" />
<glyph unicode="t" horiz-adv-x="659" d="M24 984v98h198v278h120v-278h225v-98h-225v-721q0 -75 20 -113.5t52 -51.5t70 -13q27 0 51.5 3.5t44.5 6.5l5 -99q-48 -16 -127 -16q-104 0 -170 60.5t-66 223.5v720h-198z" />
<glyph unicode="u" horiz-adv-x="1125" d="M152 390v692h120v-694q0 -116 34 -182t90.5 -94t125.5 -28q143 0 220.5 60.5t107.5 152.5v785h120v-1082h-116l-2 137q-50 -73 -135 -115t-209 -42q-159 0 -257.5 94t-98.5 316z" />
<glyph unicode="v" horiz-adv-x="985" d="M38 1082h124l332 -917l328 917h124l-405 -1082h-97z" />
<glyph unicode="w" horiz-adv-x="1545" d="M63 1082h124l228 -833l18 -91l24 96l260 828h103l257 -821l28 -113l22 104l223 830h123l-314 -1082h-102l-279 859l-12 59l-14 -60l-273 -858h-102z" />
<glyph unicode="x" horiz-adv-x="997" d="M48 0l383 552l-367 530h141l291 -438l293 438h142l-367 -530l382 -552h-140l-309 458l-307 -458h-142z" />
<glyph unicode="y" horiz-adv-x="974" d="M33 1082h130l337 -909l315 909h129l-458 -1256q-18 -49 -51 -110.5t-93 -107t-159 -45.5q-19 0 -48.5 4.5t-43.5 8.5v100q11 -3 32 -5t29 -2q97 0 149.5 49.5t86.5 146.5l53 144z" />
<glyph unicode="z" horiz-adv-x="997" d="M88 0v89l656 891h-636v102h786v-89l-658 -892h702v-101h-850z" />
<glyph unicode="{" horiz-adv-x="677" d="M69 543v105q122 0 176.5 69.5t54.5 187.5v227q0 105 30.5 196.5t104 161t202.5 107.5l27 -79q-133 -42 -188.5 -146t-55.5 -240v-227q0 -105 -43.5 -188t-140.5 -122q97 -39 140.5 -122t43.5 -188v-226q0 -137 57 -238.5t189 -145.5l-29 -79q-129 38 -202.5 107t-104 160 t-30.5 196v226q0 117 -54.5 187.5t-176.5 70.5z" />
<glyph unicode="|" horiz-adv-x="453" d="M179 -270v1726h101v-1726h-101z" />
<glyph unicode="}" horiz-adv-x="677" d="M10 -325q132 44 189 145.5t57 238.5v226q0 107 46 190t148 120q-102 37 -148 119.5t-46 190.5v227q0 136 -55 240t-189 146l27 79q129 -38 202.5 -107.5t104 -161t30.5 -196.5v-227q0 -118 54.5 -187.5t176.5 -69.5v-105q-122 0 -176.5 -70.5t-54.5 -187.5v-226 q0 -105 -30.5 -196t-104 -160t-202.5 -107z" />
<glyph unicode="~" horiz-adv-x="1403" d="M146 450q0 94 34.5 170.5t100.5 122t160 45.5q89 0 156 -38.5t143 -106.5q65 -59 113 -86t105 -27q91 0 141.5 64.5t50.5 170.5l104 -1q0 -91 -35 -169t-101.5 -125t-159.5 -47q-89 0 -154 37t-144 108q-63 57 -110.5 85t-108.5 28q-88 0 -137.5 -60t-49.5 -171h-108z " />
<glyph unicode="&#xa1;" horiz-adv-x="453" d="M141 1023q0 33 22 56t61 23q38 0 59.5 -23t21.5 -56q0 -34 -21.5 -57.5t-59.5 -23.5q-39 0 -61 23.5t-22 57.5zM168 -360l7 1050h110l7 -1050h-124z" />
<glyph unicode="&#xa2;" horiz-adv-x="1115" d="M119 520v42q0 141 45 257t133.5 190t218.5 89v220h121v-219q152 -17 252.5 -118t107.5 -263h-115q-7 131 -93.5 207t-208.5 76q-123 0 -198 -62t-109 -162t-34 -215v-42q0 -116 34 -216t109 -161.5t199 -61.5q75 0 141.5 29t110 85.5t49.5 139.5h115q-5 -95 -54 -170 t-129 -123t-177 -59v-228h-121v229q-130 15 -218.5 89.5t-133.5 190t-45 256.5z" />
<glyph unicode="&#xa3;" horiz-adv-x="1170" d="M93 645v105h185l-9 289q0 207 113 322t292 115q188 0 291 -108t103 -280h-124q0 101 -38.5 163.5t-101.5 91.5t-138 29q-121 0 -197.5 -86t-76.5 -247l9 -289h344v-105h-340l9 -276q3 -173 -65 -265h745v-104h-997v104h99q35 10 56 53.5t30 101t8 109.5l-9 277h-188z" />
<glyph unicode="&#xa4;" horiz-adv-x="1481" d="M110 60l158 162q-58 79 -90.5 177.5t-32.5 208.5q0 115 35 216.5t98 181.5l-168 172l85 86l167 -170q77 66 173.5 103t204.5 37t205.5 -37.5t174.5 -103.5l169 172l87 -87l-172 -175q61 -80 96 -180.5t35 -214.5q0 -109 -32 -206.5t-89 -176.5l162 -165l-87 -87l-157 160 q-79 -72 -179 -112.5t-213 -40.5q-112 0 -212 40t-178 112l-155 -158zM258 608q0 -143 65.5 -260t175 -187t241.5 -70t241.5 70t174.5 187t65 260q0 142 -65 259t-174.5 186.5t-241.5 69.5t-241.5 -69.5t-175 -186.5t-65.5 -259z" />
<glyph unicode="&#xa5;" horiz-adv-x="1057" d="M24 1456h139l365 -725l365 725h137l-398 -750h313v-89h-358v-204h358v-89h-358v-324h-124v324h-354v89h354v204h-354v89h313z" />
<glyph unicode="&#xa6;" horiz-adv-x="445" d="M160 -270v771h119v-771h-119zM160 698v758h119v-758h-119z" />
<glyph unicode="&#xa7;" horiz-adv-x="1240" d="M103 -64l119 2q0 -126 59 -198.5t147.5 -103t177.5 -30.5q168 0 258.5 72t90.5 181q0 69 -31.5 118.5t-112 89t-226.5 80.5q-146 37 -253 85.5t-165 124t-58 194.5q0 99 59 170t164 104q-86 48 -132 118t-46 177q0 162 128 259t342 97q221 0 347 -111t126 -320h-120 q0 91 -40.5 166t-119 119.5t-193.5 44.5q-181 0 -266 -74.5t-85 -177.5q0 -75 30.5 -124.5t111.5 -88.5t231 -81q149 -40 255 -86.5t162.5 -120t56.5 -191.5q0 -98 -62 -168.5t-170 -102.5q91 -48 139 -118t48 -181q0 -169 -128 -262.5t-341 -93.5q-93 0 -182.5 22t-162 72 t-115.5 133t-43 204zM228 553q0 -77 33.5 -127t120.5 -89.5t248 -84.5q34 -9 65 -18.5t60 -19.5q118 14 181.5 73.5t63.5 140.5q0 73 -36.5 123.5t-124.5 92t-243 85.5q-38 10 -73.5 20.5t-67.5 22.5q-116 -14 -171.5 -74.5t-55.5 -144.5z" />
<glyph unicode="&#xa8;" horiz-adv-x="881" d="M137 1397q0 33 22 56.5t61 23.5q38 0 60 -23.5t22 -56.5t-22 -56t-60 -23q-39 0 -61 23t-22 56zM575 1396q0 33 22 57t60 24q39 0 61 -24t22 -57t-22 -56t-61 -23q-38 0 -60 23t-22 56z" />
<glyph unicode="&#xa9;" horiz-adv-x="1638" d="M107 729q0 159 55.5 295t153 237.5t226 158t275.5 56.5t275.5 -56.5t226 -158t153 -237.5t55.5 -295t-55.5 -295t-153 -238.5t-226 -159.5t-275.5 -57t-275.5 57t-226 159.5t-153 238.5t-55.5 295zM193 729q0 -140 48.5 -260.5t134.5 -211t199 -141t242 -50.5t242 50.5 t199 141t134.5 211t48.5 260.5t-48.5 260t-134.5 210t-199 140t-242 50t-242 -50t-199 -140t-134.5 -210t-48.5 -260zM474 680v97q0 172 91 279.5t242 107.5q144 0 230 -78t86 -235h-99q0 115 -56 169t-161 54q-113 0 -173.5 -85t-60.5 -211v-98q0 -128 60.5 -212t173.5 -84 q105 0 160.5 52.5t55.5 170.5h99q0 -157 -85.5 -235.5t-229.5 -78.5q-151 0 -242 107.5t-91 279.5z" />
<glyph unicode="&#xaa;" horiz-adv-x="907" d="M158 909q0 109 84 170t245 61h139v61q0 85 -40.5 132t-121.5 47q-89 0 -140.5 -35.5t-51.5 -107.5l-107 6q0 102 82 167.5t217 65.5q121 0 196 -69t75 -207v-314q0 -94 26 -181h-112q-14 45 -20 95q-33 -43 -89.5 -76t-132.5 -33q-121 0 -185 59.5t-64 158.5zM266 913 q0 -57 38 -91.5t122 -34.5q59 0 116 32t84 72v167h-138q-109 0 -165.5 -38t-56.5 -107z" />
<glyph unicode="&#xab;" horiz-adv-x="933" d="M123 527v19l295 378h106l-276 -388l276 -388h-106zM432 527v19l295 378h106l-276 -388l276 -388h-106z" />
<glyph unicode="&#xac;" horiz-adv-x="1118" d="M124 670v106h813v-390h-120v284h-693z" />
<glyph unicode="&#xad;" horiz-adv-x="600" d="M49 592v102h480v-102h-480z" />
<glyph unicode="&#xae;" horiz-adv-x="1642" d="M103 729q0 159 55 295t152.5 237.5t226.5 158t276 56.5t275.5 -56.5t226 -158t153 -237.5t55.5 -295t-55.5 -295t-153 -238.5t-226 -159.5t-275.5 -57t-276 57t-226.5 159.5t-152.5 238.5t-55 295zM188 729q0 -140 48.5 -260.5t134.5 -211t199.5 -141t242.5 -50.5 q128 0 241 50.5t199 141t134.5 211t48.5 260.5t-48.5 260t-134.5 210t-199 140t-241 50q-129 0 -242.5 -50t-199.5 -140t-134.5 -210t-48.5 -260zM552 322v838h258q146 0 226 -62t80 -185q0 -133 -141 -197q72 -25 99.5 -80.5t27.5 -126.5v-44q0 -38 4.5 -71.5t12.5 -55.5 v-16h-102q-10 25 -11.5 73.5t-1.5 70.5v42q0 84 -37.5 121.5t-128.5 37.5h-188v-345h-98zM650 758h181q75 0 131 39t56 114q0 84 -45.5 121.5t-162.5 37.5h-160v-312z" />
<glyph unicode="&#xaf;" horiz-adv-x="875" d="M137 1344v96h619v-96h-619z" />
<glyph unicode="&#xb0;" horiz-adv-x="774" d="M144 1227q0 68 33 124.5t89 90.5t123 34q66 0 121 -34t87.5 -90.5t32.5 -124.5q0 -69 -32.5 -125t-87.5 -89t-121 -33q-67 0 -123 33t-89 89t-33 125zM233 1227q0 -68 45 -112t111 -44q65 0 108 44t43 112t-43 113.5t-108 45.5q-66 0 -111 -45.5t-45 -113.5z" />
<glyph unicode="&#xb1;" horiz-adv-x="1086" d="M84 728v101h415v438h111v-438h390v-101h-390v-439h-111v439h-415zM128 0v101h835v-101h-835z" />
<glyph unicode="&#xb2;" horiz-adv-x="740" d="M76 1216q0 102 76 175.5t209 73.5q123 0 195 -60.5t72 -165.5q0 -76 -53.5 -144.5t-131.5 -143.5l-213 -198h437v-88h-571v76l290 283q74 72 105 122t31 92q0 62 -40.5 100.5t-118.5 38.5q-91 0 -136 -46t-45 -115h-106z" />
<glyph unicode="&#xb3;" horiz-adv-x="740" d="M72 884h105q0 -62 53 -102.5t137 -40.5q86 0 132.5 38.5t46.5 104.5q0 76 -55 109t-146 33h-77v81h77q92 0 138.5 39t46.5 96t-40 96t-128 39q-72 0 -121.5 -35.5t-49.5 -95.5h-106q0 100 80.5 159.5t195.5 59.5q123 0 198.5 -57t75.5 -164q0 -56 -37.5 -103.5 t-107.5 -71.5q162 -41 162 -189q0 -108 -82.5 -167t-205.5 -59q-72 0 -139 24.5t-110 75.5t-43 130z" />
<glyph unicode="&#xb4;" horiz-adv-x="577" d="M125 1257l191 279h145l-232 -279h-104z" />
<glyph unicode="&#xb5;" horiz-adv-x="1125" d="M145 -415l7 1050v447h120v-694q0 -116 34 -182t90.5 -94t125.5 -28q143 0 220.5 60.5t107.5 152.5v785h120v-1082h-116l-2 137q-50 -73 -135 -115t-209 -42q-73 0 -134.5 19t-107.5 60l3 -474h-124z" />
<glyph unicode="&#xb6;" horiz-adv-x="974" d="M83 988q0 134 56.5 240t166.5 167t269 61h227v-1456h-121v520h-106q-159 0 -269 60.5t-166.5 166.5t-56.5 241z" />
<glyph unicode="&#xb7;" horiz-adv-x="504" d="M163 717q0 35 22.5 59.5t62.5 24.5t63 -24.5t23 -59.5q0 -34 -23 -57.5t-63 -23.5t-62.5 23.5t-22.5 57.5z" />
<glyph unicode="&#xb8;" horiz-adv-x="499" d="M98 -358q75 0 138.5 28.5t63.5 91.5q0 59 -43 80.5t-132 29.5l28 128h93l-11 -65q62 -8 113.5 -45t51.5 -126t-77 -144t-218 -55z" />
<glyph unicode="&#xb9;" horiz-adv-x="740" d="M127 1259v90l324 106h13v-790h-105v663z" />
<glyph unicode="&#xba;" horiz-adv-x="923" d="M136 1033v100q0 150 86.5 246.5t235.5 96.5q151 0 237.5 -96.5t86.5 -246.5v-100q0 -150 -86 -246.5t-236 -96.5t-237 96.5t-87 246.5zM244 1033q0 -104 52 -175.5t164 -71.5q108 0 161 71.5t53 175.5v100q0 102 -53 174.5t-163 72.5q-108 0 -161 -72.5t-53 -174.5v-100z " />
<glyph unicode="&#xbb;" horiz-adv-x="929" d="M116 162l276 389l-276 393h106l294 -384v-19l-294 -379h-106zM435 162l276 389l-276 393h106l294 -384v-19l-294 -379h-106z" />
<glyph unicode="&#xbc;" horiz-adv-x="1454" d="M127 1140v90l324 106h13v-790h-105v663zM386 169l711 1138l74 -48l-711 -1138zM774 253l397 536h110v-513h127v-89h-127v-187h-105v187h-398zM888 276h288v382l-30 -49z" />
<glyph unicode="&#xbd;" horiz-adv-x="1572" d="M127 1140v90l324 106h13v-790h-105v663zM376 169l711 1138l74 -48l-711 -1138zM908 551q0 102 76 175.5t209 73.5q123 0 195 -60.5t72 -165.5q0 -76 -53.5 -144.5t-131.5 -143.5l-213 -198h437v-88h-571v76l290 283q74 72 105 122t31 92q0 62 -40.5 100.5t-118.5 38.5 q-91 0 -136 -46t-45 -115h-106z" />
<glyph unicode="&#xbe;" horiz-adv-x="1564" d="M72 758h105q0 -62 53 -102.5t137 -40.5q86 0 132.5 38.5t46.5 104.5q0 76 -55 109t-146 33h-77v81h77q92 0 138.5 39t46.5 96t-40 96t-128 39q-72 0 -121.5 -35.5t-49.5 -95.5h-106q0 100 80.5 159.5t195.5 59.5q123 0 198.5 -57t75.5 -164q0 -56 -37.5 -103.5 t-107.5 -71.5q162 -41 162 -189q0 -108 -82.5 -167t-205.5 -59q-72 0 -139 24.5t-110 75.5t-43 130zM496 169l711 1138l74 -48l-711 -1138zM884 253l397 536h110v-513h127v-89h-127v-187h-105v187h-398zM998 276h288v382l-30 -49z" />
<glyph unicode="&#xbf;" horiz-adv-x="941" d="M88 -11q0 145 74 250t175 199q64 55 79.5 112.5t15.5 137.5h120q-1 -85 -13 -137t-43 -95.5t-92 -103.5q-52 -52 -96.5 -101.5t-72 -111t-27.5 -148.5q0 -127 67.5 -197.5t193.5 -70.5q117 0 189.5 68.5t74.5 187.5h120q-2 -117 -53 -198t-137.5 -122.5t-193.5 -41.5 q-181 0 -281 100.5t-100 271.5zM402 1022q0 34 22.5 56.5t60.5 22.5q39 0 60.5 -22.5t21.5 -56.5q0 -33 -21.5 -56.5t-60.5 -23.5q-38 0 -60.5 23.5t-22.5 56.5z" />
<glyph unicode="&#xc0;" horiz-adv-x="1280" d="M31 0l550 1456h117l551 -1456h-128l-150 408h-662l-150 -408h-128zM348 513h584l-292 793zM378 1851h145l191 -279h-109z" />
<glyph unicode="&#xc1;" horiz-adv-x="1280" d="M31 0l550 1456h117l551 -1456h-128l-150 408h-662l-150 -408h-128zM348 513h584l-292 793zM573 1572l191 279h145l-232 -279h-104z" />
<glyph unicode="&#xc2;" horiz-adv-x="1280" d="M31 0l550 1456h117l551 -1456h-128l-150 408h-662l-150 -408h-128zM348 513h584l-292 793zM367 1574v12l238 255h75l241 -257v-10h-110l-169 183l-167 -183h-108z" />
<glyph unicode="&#xc3;" horiz-adv-x="1280" d="M31 0l550 1456h117l551 -1456h-128l-150 408h-662l-150 -408h-128zM311 1593q0 95 56 153.5t139 58.5q47 0 81.5 -16.5t64 -38.5t60.5 -38.5t72 -16.5q45 0 77.5 33t32.5 89l90 -6q0 -96 -57 -154.5t-139 -58.5q-52 0 -86.5 16.5t-61.5 38.5t-56.5 38.5t-72.5 16.5 q-47 0 -79 -32t-32 -87zM348 513h584l-292 793z" />
<glyph unicode="&#xc4;" horiz-adv-x="1280" d="M31 0l550 1456h117l551 -1456h-128l-150 408h-662l-150 -408h-128zM343 1712q0 33 22 56.5t61 23.5q38 0 60 -23.5t22 -56.5t-22 -56t-60 -23q-39 0 -61 23t-22 56zM348 513h584l-292 793zM781 1711q0 33 22 57t60 24q39 0 61 -24t22 -57t-22 -56t-61 -23q-38 0 -60 23 t-22 56z" />
<glyph unicode="&#xc5;" horiz-adv-x="1280" d="M31 0l550 1456h117l551 -1456h-128l-150 408h-662l-150 -408h-128zM348 513h584l-292 793zM449 1715q0 80 56 135.5t138 55.5q81 0 136.5 -55.5t55.5 -135.5t-55.5 -133t-136.5 -53q-82 0 -138 53t-56 133zM526 1715q0 -48 33 -82t84 -34t83.5 33.5t32.5 82.5 q0 50 -32.5 84.5t-83.5 34.5t-84 -34.5t-33 -84.5z" />
<glyph unicode="&#xc6;" horiz-adv-x="1865" d="M17 0l881 1456h864v-101h-693l23 -546h589v-101h-585l26 -607h702v-101h-818l-16 390h-596l-231 -390h-146zM460 502h525l-35 829z" />
<glyph unicode="&#xc7;" horiz-adv-x="1330" d="M132 636v183q0 197 68 344.5t193 230t295 82.5q233 0 369 -125.5t158 -349.5h-123q-22 177 -119 273.5t-285 96.5q-135 0 -232 -68.5t-149 -192.5t-52 -289v-185q0 -160 50 -284.5t144.5 -196t229.5 -71.5q194 0 291.5 93t121.5 277h123q-23 -222 -159 -348t-377 -126 q-165 0 -288 82t-191 230t-68 344zM581 -368q75 0 138.5 28.5t63.5 91.5q0 59 -43 80.5t-132 29.5l28 128h93l-11 -65q62 -8 113.5 -45t51.5 -126t-77 -144t-218 -55z" />
<glyph unicode="&#xc8;" horiz-adv-x="1165" d="M185 0v1456h900v-105h-777v-548h680v-105h-680v-594h782v-104h-905zM355 1856h145l191 -279h-109z" />
<glyph unicode="&#xc9;" horiz-adv-x="1165" d="M185 0v1456h900v-105h-777v-548h680v-105h-680v-594h782v-104h-905zM550 1577l191 279h145l-232 -279h-104z" />
<glyph unicode="&#xca;" horiz-adv-x="1165" d="M185 0v1456h900v-105h-777v-548h680v-105h-680v-594h782v-104h-905zM343 1579v12l238 255h75l241 -257v-10h-110l-169 183l-167 -183h-108z" />
<glyph unicode="&#xcb;" horiz-adv-x="1165" d="M185 0v1456h900v-105h-777v-548h680v-105h-680v-594h782v-104h-905zM319 1717q0 33 22 56.5t61 23.5q38 0 60 -23.5t22 -56.5t-22 -56t-60 -23q-39 0 -61 23t-22 56zM757 1716q0 33 22 57t60 24q39 0 61 -24t22 -57t-22 -56t-61 -23q-38 0 -60 23t-22 56z" />
<glyph unicode="&#xcc;" horiz-adv-x="546" d="M9 1856h145l191 -279h-109zM212 0v1456h123v-1456h-123z" />
<glyph unicode="&#xcd;" horiz-adv-x="546" d="M204 1577l191 279h145l-232 -279h-104zM212 0v1456h123v-1456h-123z" />
<glyph unicode="&#xce;" horiz-adv-x="546" d="M-2 1579v12l238 255h75l241 -257v-10h-110l-169 183l-167 -183h-108zM212 0v1456h123v-1456h-123z" />
<glyph unicode="&#xcf;" horiz-adv-x="546" d="M-26 1717q0 33 22 56.5t61 23.5q38 0 60 -23.5t22 -56.5t-22 -56t-60 -23q-39 0 -61 23t-22 56zM212 0v1456h123v-1456h-123zM412 1716q0 33 22 57t60 24q39 0 61 -24t22 -57t-22 -56t-61 -23q-38 0 -60 23t-22 56z" />
<glyph unicode="&#xd0;" horiz-adv-x="1342" d="M33 690v101h613v-101h-613zM185 0v1456h407q181 0 321.5 -82t220 -231t79.5 -348v-134q0 -200 -79.5 -348.5t-221.5 -230.5t-329 -82h-398zM308 104h275q156 0 270 70.5t176 196t62 290.5v136q0 168 -62 292.5t-174.5 193t-262.5 68.5h-284v-1247z" />
<glyph unicode="&#xd1;" horiz-adv-x="1455" d="M185 0v1456h123l839 -1246v1246h122v-1456h-124l-837 1246v-1246h-123zM395 1593q0 95 56 153.5t139 58.5q47 0 81.5 -16.5t64 -38.5t60.5 -38.5t72 -16.5q45 0 77.5 33t32.5 89l90 -6q0 -96 -57 -154.5t-139 -58.5q-52 0 -86.5 16.5t-61.5 38.5t-56.5 38.5t-72.5 16.5 q-47 0 -79 -32t-32 -87z" />
<glyph unicode="&#xd2;" horiz-adv-x="1387" d="M126 650v156q0 204 71 354.5t198.5 233t296.5 82.5q173 0 300.5 -82.5t197.5 -233t70 -354.5v-156q0 -204 -69.5 -354.5t-196.5 -233t-300 -82.5q-169 0 -297 82.5t-199.5 233t-71.5 354.5zM249 650q0 -260 119.5 -411.5t325.5 -151.5q212 0 328 151.5t116 411.5v158 q0 258 -117.5 409t-328.5 151q-206 0 -324.5 -151t-118.5 -409v-158zM427 1863h145l191 -279h-109z" />
<glyph unicode="&#xd3;" horiz-adv-x="1387" d="M126 650v156q0 204 71 354.5t198.5 233t296.5 82.5q173 0 300.5 -82.5t197.5 -233t70 -354.5v-156q0 -204 -69.5 -354.5t-196.5 -233t-300 -82.5q-169 0 -297 82.5t-199.5 233t-71.5 354.5zM249 650q0 -260 119.5 -411.5t325.5 -151.5q212 0 328 151.5t116 411.5v158 q0 258 -117.5 409t-328.5 151q-206 0 -324.5 -151t-118.5 -409v-158zM622 1584l191 279h145l-232 -279h-104z" />
<glyph unicode="&#xd4;" horiz-adv-x="1387" d="M126 650v156q0 204 71 354.5t198.5 233t296.5 82.5q173 0 300.5 -82.5t197.5 -233t70 -354.5v-156q0 -204 -69.5 -354.5t-196.5 -233t-300 -82.5q-169 0 -297 82.5t-199.5 233t-71.5 354.5zM249 650q0 -260 119.5 -411.5t325.5 -151.5q212 0 328 151.5t116 411.5v158 q0 258 -117.5 409t-328.5 151q-206 0 -324.5 -151t-118.5 -409v-158zM416 1586v12l238 255h75l241 -257v-10h-110l-169 183l-167 -183h-108z" />
<glyph unicode="&#xd5;" horiz-adv-x="1387" d="M126 650v156q0 204 71 354.5t198.5 233t296.5 82.5q173 0 300.5 -82.5t197.5 -233t70 -354.5v-156q0 -204 -69.5 -354.5t-196.5 -233t-300 -82.5q-169 0 -297 82.5t-199.5 233t-71.5 354.5zM249 650q0 -260 119.5 -411.5t325.5 -151.5q212 0 328 151.5t116 411.5v158 q0 258 -117.5 409t-328.5 151q-206 0 -324.5 -151t-118.5 -409v-158zM360 1604q0 95 56 153.5t139 58.5q47 0 81.5 -16.5t64 -38.5t60.5 -38.5t72 -16.5q45 0 77.5 33t32.5 89l90 -6q0 -96 -57 -154.5t-139 -58.5q-52 0 -86.5 16.5t-61.5 38.5t-56.5 38.5t-72.5 16.5 q-47 0 -79 -32t-32 -87z" />
<glyph unicode="&#xd6;" horiz-adv-x="1387" d="M126 650v156q0 204 71 354.5t198.5 233t296.5 82.5q173 0 300.5 -82.5t197.5 -233t70 -354.5v-156q0 -204 -69.5 -354.5t-196.5 -233t-300 -82.5q-169 0 -297 82.5t-199.5 233t-71.5 354.5zM249 650q0 -260 119.5 -411.5t325.5 -151.5q212 0 328 151.5t116 411.5v158 q0 258 -117.5 409t-328.5 151q-206 0 -324.5 -151t-118.5 -409v-158zM392 1724q0 33 22 56.5t61 23.5q38 0 60 -23.5t22 -56.5t-22 -56t-60 -23q-39 0 -61 23t-22 56zM830 1723q0 33 22 57t60 24q39 0 61 -24t22 -57t-22 -56t-61 -23q-38 0 -60 23t-22 56z" />
<glyph unicode="&#xd7;" horiz-adv-x="1072" d="M94 179l357 366l-343 349l79 80l343 -349l343 349l79 -80l-343 -349l358 -366l-79 -79l-358 365l-357 -365z" />
<glyph unicode="&#xd8;" horiz-adv-x="1387" d="M126 650v156q0 204 71 354.5t198.5 233t296.5 82.5q113 0 207 -36t166 -104l107 169h103l-149 -236q64 -87 99 -204t35 -259v-156q0 -204 -69.5 -354.5t-196.5 -233t-300 -82.5q-182 0 -318 97l-101 -161h-104l137 218q-86 88 -134 219t-48 297zM249 650q0 -264 122 -415 l632 1003q-117 130 -311 130q-206 0 -324.5 -151t-118.5 -409v-158zM436 171q107 -84 258 -84q212 0 328 151.5t116 411.5v158q0 212 -80 353z" />
<glyph unicode="&#xd9;" horiz-adv-x="1347" d="M163 470v986h122v-986q0 -191 110 -288.5t280 -97.5t279.5 97.5t109.5 288.5v986h123v-986q0 -164 -69 -272.5t-185.5 -163t-257.5 -54.5q-146 0 -261.5 54.5t-183 163t-67.5 272.5zM418 1851h145l191 -279h-109z" />
<glyph unicode="&#xda;" horiz-adv-x="1347" d="M163 470v986h122v-986q0 -191 110 -288.5t280 -97.5t279.5 97.5t109.5 288.5v986h123v-986q0 -164 -69 -272.5t-185.5 -163t-257.5 -54.5q-146 0 -261.5 54.5t-183 163t-67.5 272.5zM613 1572l191 279h145l-232 -279h-104z" />
<glyph unicode="&#xdb;" horiz-adv-x="1347" d="M163 470v986h122v-986q0 -191 110 -288.5t280 -97.5t279.5 97.5t109.5 288.5v986h123v-986q0 -164 -69 -272.5t-185.5 -163t-257.5 -54.5q-146 0 -261.5 54.5t-183 163t-67.5 272.5zM407 1574v12l238 255h75l241 -257v-10h-110l-169 183l-167 -183h-108z" />
<glyph unicode="&#xdc;" horiz-adv-x="1347" d="M163 470v986h122v-986q0 -191 110 -288.5t280 -97.5t279.5 97.5t109.5 288.5v986h123v-986q0 -164 -69 -272.5t-185.5 -163t-257.5 -54.5q-146 0 -261.5 54.5t-183 163t-67.5 272.5zM383 1712q0 33 22 56.5t61 23.5q38 0 60 -23.5t22 -56.5t-22 -56t-60 -23q-39 0 -61 23 t-22 56zM821 1711q0 33 22 57t60 24q39 0 61 -24t22 -57t-22 -56t-61 -23q-38 0 -60 23t-22 56z" />
<glyph unicode="&#xdd;" horiz-adv-x="1227" d="M24 1456h146l441 -794l445 794h142l-525 -907v-549h-124v549zM544 1566l191 279h145l-232 -279h-104z" />
<glyph unicode="&#xde;" horiz-adv-x="1215" d="M183 0v1456h120v-303h324q152 0 256.5 -54t158.5 -148t54 -213t-54 -212.5t-158.5 -147.5t-256.5 -54h-324v-324h-120zM303 426h324q124 0 201 46t112.5 117.5t35.5 146.5q0 78 -35.5 150.5t-112.5 118.5t-201 46h-324v-625z" />
<glyph unicode="&#xdf;" horiz-adv-x="1201" d="M152 0v1128q0 204 97 310t264 106q94 0 172 -35t124.5 -103.5t46.5 -168.5q0 -75 -18.5 -125.5t-43 -91t-43 -85.5t-18.5 -110q0 -59 36.5 -104.5t91 -86.5t108.5 -86.5t90.5 -103.5t36.5 -137q0 -108 -53.5 -180.5t-139.5 -110t-183 -37.5q-56 0 -117 11.5t-111.5 30 t-76.5 40.5l33 100q37 -27 110.5 -54t147.5 -27q129 0 199.5 67.5t70.5 159.5q0 63 -36.5 110.5t-90.5 89t-108 86t-90.5 100.5t-36.5 134q0 68 19 117t43.5 91t43.5 87.5t19 108.5q0 97 -65 154.5t-151 57.5q-116 0 -184 -74t-68 -241v-1128h-119z" />
<glyph unicode="&#xe0;" horiz-adv-x="1098" d="M100 287q0 159 132.5 251t361.5 92h221v122q0 116 -72 183t-207 67q-126 0 -208 -64t-82 -155l-120 1q0 81 52.5 154t146 118.5t216.5 45.5q173 0 283.5 -88t110.5 -264v-523q0 -56 8.5 -116t24.5 -99v-12h-128q-10 28 -16 68.5t-8 82.5q-54 -69 -146 -120t-220 -51 q-159 0 -254.5 87.5t-95.5 219.5zM220 298q0 -89 65.5 -150.5t177.5 -61.5q130 0 221.5 62t130.5 151v239h-205q-184 0 -287 -64.5t-103 -175.5zM315 1535h145l191 -279h-109z" />
<glyph unicode="&#xe1;" horiz-adv-x="1098" d="M100 287q0 159 132.5 251t361.5 92h221v122q0 116 -72 183t-207 67q-126 0 -208 -64t-82 -155l-120 1q0 81 52.5 154t146 118.5t216.5 45.5q173 0 283.5 -88t110.5 -264v-523q0 -56 8.5 -116t24.5 -99v-12h-128q-10 28 -16 68.5t-8 82.5q-54 -69 -146 -120t-220 -51 q-159 0 -254.5 87.5t-95.5 219.5zM220 298q0 -89 65.5 -150.5t177.5 -61.5q130 0 221.5 62t130.5 151v239h-205q-184 0 -287 -64.5t-103 -175.5zM510 1256l191 279h145l-232 -279h-104z" />
<glyph unicode="&#xe2;" horiz-adv-x="1098" d="M100 287q0 159 132.5 251t361.5 92h221v122q0 116 -72 183t-207 67q-126 0 -208 -64t-82 -155l-120 1q0 81 52.5 154t146 118.5t216.5 45.5q173 0 283.5 -88t110.5 -264v-523q0 -56 8.5 -116t24.5 -99v-12h-128q-10 28 -16 68.5t-8 82.5q-54 -69 -146 -120t-220 -51 q-159 0 -254.5 87.5t-95.5 219.5zM220 298q0 -89 65.5 -150.5t177.5 -61.5q130 0 221.5 62t130.5 151v239h-205q-184 0 -287 -64.5t-103 -175.5zM303 1258v12l238 255h75l241 -257v-10h-110l-169 183l-167 -183h-108z" />
<glyph unicode="&#xe3;" horiz-adv-x="1098" d="M100 287q0 159 132.5 251t361.5 92h221v122q0 116 -72 183t-207 67q-126 0 -208 -64t-82 -155l-120 1q0 81 52.5 154t146 118.5t216.5 45.5q173 0 283.5 -88t110.5 -264v-523q0 -56 8.5 -116t24.5 -99v-12h-128q-10 28 -16 68.5t-8 82.5q-54 -69 -146 -120t-220 -51 q-159 0 -254.5 87.5t-95.5 219.5zM220 298q0 -89 65.5 -150.5t177.5 -61.5q130 0 221.5 62t130.5 151v239h-205q-184 0 -287 -64.5t-103 -175.5zM248 1277q0 95 56 153.5t139 58.5q47 0 81.5 -16.5t64 -38.5t60.5 -38.5t72 -16.5q45 0 77.5 33t32.5 89l90 -6 q0 -96 -57 -154.5t-139 -58.5q-52 0 -86.5 16.5t-61.5 38.5t-56.5 38.5t-72.5 16.5q-47 0 -79 -32t-32 -87z" />
<glyph unicode="&#xe4;" horiz-adv-x="1098" d="M100 287q0 159 132.5 251t361.5 92h221v122q0 116 -72 183t-207 67q-126 0 -208 -64t-82 -155l-120 1q0 81 52.5 154t146 118.5t216.5 45.5q173 0 283.5 -88t110.5 -264v-523q0 -56 8.5 -116t24.5 -99v-12h-128q-10 28 -16 68.5t-8 82.5q-54 -69 -146 -120t-220 -51 q-159 0 -254.5 87.5t-95.5 219.5zM220 298q0 -89 65.5 -150.5t177.5 -61.5q130 0 221.5 62t130.5 151v239h-205q-184 0 -287 -64.5t-103 -175.5zM280 1396q0 33 22 56.5t61 23.5q38 0 60 -23.5t22 -56.5t-22 -56t-60 -23q-39 0 -61 23t-22 56zM718 1395q0 33 22 57t60 24 q39 0 61 -24t22 -57t-22 -56t-61 -23q-38 0 -60 23t-22 56z" />
<glyph unicode="&#xe5;" horiz-adv-x="1098" d="M100 287q0 159 132.5 251t361.5 92h221v122q0 116 -72 183t-207 67q-126 0 -208 -64t-82 -155l-120 1q0 81 52.5 154t146 118.5t216.5 45.5q173 0 283.5 -88t110.5 -264v-523q0 -56 8.5 -116t24.5 -99v-12h-128q-10 28 -16 68.5t-8 82.5q-54 -69 -146 -120t-220 -51 q-159 0 -254.5 87.5t-95.5 219.5zM220 298q0 -89 65.5 -150.5t177.5 -61.5q130 0 221.5 62t130.5 151v239h-205q-184 0 -287 -64.5t-103 -175.5zM387 1400q0 80 56 135.5t138 55.5q81 0 136.5 -55.5t55.5 -135.5t-55.5 -133t-136.5 -53q-82 0 -138 53t-56 133zM464 1400 q0 -48 33 -82t84 -34t83.5 33.5t32.5 82.5q0 50 -32.5 84.5t-83.5 34.5t-84 -34.5t-33 -84.5z" />
<glyph unicode="&#xe6;" horiz-adv-x="1732" d="M86 294q0 155 111.5 246.5t327.5 91.5h256v88q0 132 -63.5 206.5t-189.5 74.5q-139 0 -217.5 -68.5t-78.5 -166.5l-118 12q0 94 51.5 167t144.5 115t218 42q124 0 213.5 -53.5t129.5 -158.5q60 99 154.5 155.5t210.5 56.5q202 0 312.5 -124.5t110.5 -339.5v-100h-757v-28 q0 -119 37.5 -216t118 -155t208.5 -58q112 0 190.5 36.5t132.5 82.5l47 -88q-43 -41 -130.5 -86.5t-239.5 -45.5q-139 0 -239 55.5t-159 151.5q-29 -49 -86 -97t-142 -79t-199 -31q-171 0 -263 85.5t-92 228.5zM206 290q0 -94 63.5 -152t188.5 -58q69 0 133 24t114 59.5 t76 71.5v301h-254q-163 0 -242 -74t-79 -172zM905 636h634v31q0 93 -32 168.5t-99.5 120.5t-171.5 45q-95 0 -165 -48.5t-112 -131t-54 -185.5z" />
<glyph unicode="&#xe7;" horiz-adv-x="1056" d="M95 520v42q0 152 52 274.5t154.5 194t253.5 71.5q116 0 208.5 -47t148.5 -133.5t61 -203.5h-115q-8 131 -94 207t-209 76t-198 -62t-109 -162t-34 -215v-42q0 -116 34 -216t109 -161.5t199 -61.5q76 0 142.5 29t110 85.5t49.5 139.5h115q-6 -103 -63.5 -183.5t-150 -126 t-203.5 -45.5q-151 0 -254 71.5t-155 194t-52 274.5zM442 -368q75 0 138.5 28.5t63.5 91.5q0 59 -43 80.5t-132 29.5l28 128h93l-11 -65q62 -8 113.5 -45t51.5 -126t-77 -144t-218 -55z" />
<glyph unicode="&#xe8;" horiz-adv-x="1059" d="M90 511v43q0 167 64.5 290t170 190.5t228.5 67.5q138 0 233.5 -63.5t145.5 -175.5t50 -256v-73h-772v-23q0 -120 46.5 -217.5t130 -155t193.5 -57.5q96 0 170 35.5t133 112.5l76 -57q-54 -79 -146 -135.5t-238 -56.5q-141 0 -250.5 68.5t-172 188t-62.5 274.5zM214 635 h648v14q-2 90 -37 170.5t-102.5 131t-169.5 50.5q-136 0 -227.5 -100.5t-111.5 -265.5zM302 1535h145l191 -279h-109z" />
<glyph unicode="&#xe9;" horiz-adv-x="1059" d="M90 511v43q0 167 64.5 290t170 190.5t228.5 67.5q138 0 233.5 -63.5t145.5 -175.5t50 -256v-73h-772v-23q0 -120 46.5 -217.5t130 -155t193.5 -57.5q96 0 170 35.5t133 112.5l76 -57q-54 -79 -146 -135.5t-238 -56.5q-141 0 -250.5 68.5t-172 188t-62.5 274.5zM214 635 h648v14q-2 90 -37 170.5t-102.5 131t-169.5 50.5q-136 0 -227.5 -100.5t-111.5 -265.5zM497 1256l191 279h145l-232 -279h-104z" />
<glyph unicode="&#xea;" horiz-adv-x="1059" d="M90 511v43q0 167 64.5 290t170 190.5t228.5 67.5q138 0 233.5 -63.5t145.5 -175.5t50 -256v-73h-772v-23q0 -120 46.5 -217.5t130 -155t193.5 -57.5q96 0 170 35.5t133 112.5l76 -57q-54 -79 -146 -135.5t-238 -56.5q-141 0 -250.5 68.5t-172 188t-62.5 274.5zM214 635 h648v14q-2 90 -37 170.5t-102.5 131t-169.5 50.5q-136 0 -227.5 -100.5t-111.5 -265.5zM290 1258v12l238 255h75l241 -257v-10h-110l-169 183l-167 -183h-108z" />
<glyph unicode="&#xeb;" horiz-adv-x="1059" d="M90 511v43q0 167 64.5 290t170 190.5t228.5 67.5q138 0 233.5 -63.5t145.5 -175.5t50 -256v-73h-772v-23q0 -120 46.5 -217.5t130 -155t193.5 -57.5q96 0 170 35.5t133 112.5l76 -57q-54 -79 -146 -135.5t-238 -56.5q-141 0 -250.5 68.5t-172 188t-62.5 274.5zM214 635 h648v14q-2 90 -37 170.5t-102.5 131t-169.5 50.5q-136 0 -227.5 -100.5t-111.5 -265.5zM266 1396q0 33 22 56.5t61 23.5q38 0 60 -23.5t22 -56.5t-22 -56t-60 -23q-39 0 -61 23t-22 56zM704 1395q0 33 22 57t60 24q39 0 61 -24t22 -57t-22 -56t-61 -23q-38 0 -60 23t-22 56z " />
<glyph unicode="&#xec;" horiz-adv-x="456" d="M-34 1523h145l191 -279h-109zM169 0v1082h119v-1082h-119z" />
<glyph unicode="&#xed;" horiz-adv-x="456" d="M162 1244l191 279h145l-232 -279h-104zM169 0v1082h119v-1082h-119z" />
<glyph unicode="&#xee;" horiz-adv-x="456" d="M-45 1246v12l238 255h75l241 -257v-10h-110l-169 183l-167 -183h-108zM169 0v1082h119v-1082h-119z" />
<glyph unicode="&#xef;" horiz-adv-x="456" d="M-69 1384q0 33 22 56.5t61 23.5q38 0 60 -23.5t22 -56.5t-22 -56t-60 -23q-39 0 -61 23t-22 56zM169 0v1082h119v-1082h-119zM369 1383q0 33 22 57t60 24q39 0 61 -24t22 -57t-22 -56t-61 -23q-38 0 -60 23t-22 56z" />
<glyph unicode="&#xf0;" horiz-adv-x="1192" d="M150 466q0 155 54.5 267t153 172t230.5 60q99 0 186 -38.5t146 -104.5q-24 135 -78.5 238.5t-131.5 180.5l-226 -139l-50 73l206 128q-75 57 -162 99.5t-182 72.5l39 104q245 -73 409 -212l195 121l51 -73l-179 -111q119 -124 181.5 -293.5t62.5 -386.5v-89 q0 -164 -56.5 -289.5t-156 -195.5t-226.5 -70q-138 0 -243 65t-164 175.5t-59 245.5zM270 466q0 -94 40.5 -182t118.5 -144t191 -56q97 0 168 58.5t109.5 160.5t38.5 232v91q0 29 -2 57q-32 67 -112 122.5t-213 55.5q-171 0 -255 -111t-84 -284z" />
<glyph unicode="&#xf1;" horiz-adv-x="1126" d="M156 0v1082h115l4 -183q56 92 146 147.5t206 55.5q162 0 254 -92t92 -306v-704h-120v705q0 168 -68.5 231t-185.5 63q-85 0 -149 -37t-107.5 -95.5t-66.5 -123.5v-743h-120zM244 1276q0 95 56 153.5t139 58.5q47 0 81.5 -16.5t64 -38.5t60.5 -38.5t72 -16.5q45 0 77.5 33 t32.5 89l90 -6q0 -96 -57 -154.5t-139 -58.5q-52 0 -86.5 16.5t-61.5 38.5t-56.5 38.5t-72.5 16.5q-47 0 -79 -32t-32 -87z" />
<glyph unicode="&#xf2;" horiz-adv-x="1148" d="M91 524v33q0 158 60 281t168 193.5t254 70.5q147 0 255.5 -70.5t168.5 -193.5t60 -281v-33q0 -157 -59.5 -280t-168 -193.5t-254.5 -70.5q-147 0 -255.5 70.5t-168.5 193.5t-60 280zM211 524q0 -118 42 -219t123 -162.5t199 -61.5q117 0 197.5 61.5t122.5 162.5t42 219 v33q0 117 -42 218t-123 163.5t-199 62.5q-117 0 -198 -62.5t-122.5 -163.5t-41.5 -218v-33zM307 1534h145l191 -279h-109z" />
<glyph unicode="&#xf3;" horiz-adv-x="1148" d="M91 524v33q0 158 60 281t168 193.5t254 70.5q147 0 255.5 -70.5t168.5 -193.5t60 -281v-33q0 -157 -59.5 -280t-168 -193.5t-254.5 -70.5q-147 0 -255.5 70.5t-168.5 193.5t-60 280zM211 524q0 -118 42 -219t123 -162.5t199 -61.5q117 0 197.5 61.5t122.5 162.5t42 219 v33q0 117 -42 218t-123 163.5t-199 62.5q-117 0 -198 -62.5t-122.5 -163.5t-41.5 -218v-33zM502 1255l191 279h145l-232 -279h-104z" />
<glyph unicode="&#xf4;" horiz-adv-x="1148" d="M91 524v33q0 158 60 281t168 193.5t254 70.5q147 0 255.5 -70.5t168.5 -193.5t60 -281v-33q0 -157 -59.5 -280t-168 -193.5t-254.5 -70.5q-147 0 -255.5 70.5t-168.5 193.5t-60 280zM211 524q0 -118 42 -219t123 -162.5t199 -61.5q117 0 197.5 61.5t122.5 162.5t42 219 v33q0 117 -42 218t-123 163.5t-199 62.5q-117 0 -198 -62.5t-122.5 -163.5t-41.5 -218v-33zM295 1257v12l238 255h75l241 -257v-10h-110l-169 183l-167 -183h-108z" />
<glyph unicode="&#xf5;" horiz-adv-x="1148" d="M91 524v33q0 158 60 281t168 193.5t254 70.5q147 0 255.5 -70.5t168.5 -193.5t60 -281v-33q0 -157 -59.5 -280t-168 -193.5t-254.5 -70.5q-147 0 -255.5 70.5t-168.5 193.5t-60 280zM211 524q0 -118 42 -219t123 -162.5t199 -61.5q117 0 197.5 61.5t122.5 162.5t42 219 v33q0 117 -42 218t-123 163.5t-199 62.5q-117 0 -198 -62.5t-122.5 -163.5t-41.5 -218v-33zM240 1276q0 95 56 153.5t139 58.5q47 0 81.5 -16.5t64 -38.5t60.5 -38.5t72 -16.5q45 0 77.5 33t32.5 89l90 -6q0 -96 -57 -154.5t-139 -58.5q-52 0 -86.5 16.5t-61.5 38.5 t-56.5 38.5t-72.5 16.5q-47 0 -79 -32t-32 -87z" />
<glyph unicode="&#xf6;" horiz-adv-x="1148" d="M91 524v33q0 158 60 281t168 193.5t254 70.5q147 0 255.5 -70.5t168.5 -193.5t60 -281v-33q0 -157 -59.5 -280t-168 -193.5t-254.5 -70.5q-147 0 -255.5 70.5t-168.5 193.5t-60 280zM211 524q0 -118 42 -219t123 -162.5t199 -61.5q117 0 197.5 61.5t122.5 162.5t42 219 v33q0 117 -42 218t-123 163.5t-199 62.5q-117 0 -198 -62.5t-122.5 -163.5t-41.5 -218v-33zM271 1395q0 33 22 56.5t61 23.5q38 0 60 -23.5t22 -56.5t-22 -56t-60 -23q-39 0 -61 23t-22 56zM709 1394q0 33 22 57t60 24q39 0 61 -24t22 -57t-22 -56t-61 -23q-38 0 -60 23 t-22 56z" />
<glyph unicode="&#xf7;" horiz-adv-x="1164" d="M72 644v117h998v-117h-998zM495 292q0 35 22.5 59t62.5 24t63 -24t23 -59t-23 -58.5t-63 -23.5t-62.5 23.5t-22.5 58.5zM495 1088q0 36 22.5 60t62.5 24t63 -24t23 -60q0 -34 -23 -57.5t-63 -23.5t-62.5 23.5t-22.5 57.5z" />
<glyph unicode="&#xf8;" horiz-adv-x="1141" d="M89 524v33q0 158 60 281t168.5 193.5t253.5 70.5q118 0 215 -48l78 160h93l-100 -204q94 -72 146 -189.5t52 -263.5v-33q0 -157 -59.5 -280t-167.5 -193.5t-255 -70.5q-108 0 -200 41l-79 -161h-93l99 203q-99 70 -155 190t-56 271zM209 524q0 -109 36 -204t105 -157 l389 795q-75 43 -168 43q-117 0 -197.5 -62.5t-122.5 -163.5t-42 -218v-33zM420 116q69 -35 153 -35q117 0 198 61.5t122.5 162.5t41.5 219v33q0 103 -32.5 195t-95.5 154z" />
<glyph unicode="&#xf9;" horiz-adv-x="1125" d="M152 390v692h120v-694q0 -116 34 -182t90.5 -94t125.5 -28q143 0 220.5 60.5t107.5 152.5v785h120v-1082h-116l-2 137q-50 -73 -135 -115t-209 -42q-159 0 -257.5 94t-98.5 316zM310 1536h145l191 -279h-109z" />
<glyph unicode="&#xfa;" horiz-adv-x="1125" d="M152 390v692h120v-694q0 -116 34 -182t90.5 -94t125.5 -28q143 0 220.5 60.5t107.5 152.5v785h120v-1082h-116l-2 137q-50 -73 -135 -115t-209 -42q-159 0 -257.5 94t-98.5 316zM504 1257l191 279h145l-232 -279h-104z" />
<glyph unicode="&#xfb;" horiz-adv-x="1125" d="M152 390v692h120v-694q0 -116 34 -182t90.5 -94t125.5 -28q143 0 220.5 60.5t107.5 152.5v785h120v-1082h-116l-2 137q-50 -73 -135 -115t-209 -42q-159 0 -257.5 94t-98.5 316zM298 1259v12l238 255h75l241 -257v-10h-110l-169 183l-167 -183h-108z" />
<glyph unicode="&#xfc;" horiz-adv-x="1125" d="M152 390v692h120v-694q0 -116 34 -182t90.5 -94t125.5 -28q143 0 220.5 60.5t107.5 152.5v785h120v-1082h-116l-2 137q-50 -73 -135 -115t-209 -42q-159 0 -257.5 94t-98.5 316zM274 1397q0 33 22 56.5t61 23.5q38 0 60 -23.5t22 -56.5t-22 -56t-60 -23q-39 0 -61 23 t-22 56zM712 1396q0 33 22 57t60 24q39 0 61 -24t22 -57t-22 -56t-61 -23q-38 0 -60 23t-22 56z" />
<glyph unicode="&#xfd;" horiz-adv-x="974" d="M33 1082h130l337 -909l315 909h129l-458 -1256q-18 -49 -51 -110.5t-93 -107t-159 -45.5q-19 0 -48.5 4.5t-43.5 8.5v100q11 -3 32 -5t29 -2q97 0 149.5 49.5t86.5 146.5l53 144zM444 1257l191 279h145l-232 -279h-104z" />
<glyph unicode="&#xfe;" horiz-adv-x="1151" d="M160 -416v1952h119v-604q55 80 139 125t198 45q199 0 307.5 -149.5t108.5 -401.5v-21q0 -162 -49 -286t-141 -194t-223 -70q-115 0 -200 42t-140 114v-552h-119zM279 271q40 -82 115.5 -136t197.5 -54q108 0 179 60t105.5 161.5t34.5 227.5v21q0 126 -34.5 227 t-106 160.5t-180.5 59.5q-130 0 -202.5 -62.5t-108.5 -143.5v-521z" />
<glyph unicode="&#xff;" horiz-adv-x="974" d="M33 1082h130l337 -909l315 909h129l-458 -1256q-18 -49 -51 -110.5t-93 -107t-159 -45.5q-19 0 -48.5 4.5t-43.5 8.5v100q11 -3 32 -5t29 -2q97 0 149.5 49.5t86.5 146.5l53 144zM214 1397q0 33 22 56.5t61 23.5q38 0 60 -23.5t22 -56.5t-22 -56t-60 -23q-39 0 -61 23 t-22 56zM652 1396q0 33 22 57t60 24q39 0 61 -24t22 -57t-22 -56t-61 -23q-38 0 -60 23t-22 56z" />
<glyph unicode="&#x152;" horiz-adv-x="1913" d="M109 576v304q0 177 67.5 311t188 209.5t279.5 75.5q83 0 162.5 -6t151.5 -14h838v-105h-777v-548h680v-105h-680v-594h782v-104h-843q-72 -7 -150.5 -14t-161.5 -7q-159 0 -280 75.5t-189 210.5t-68 311zM228 576q0 -228 114 -362t304 -134q131 0 250 15v1266 q-59 7 -122 10.5t-130 3.5q-190 0 -303 -131.5t-113 -361.5v-306z" />
<glyph unicode="&#x153;" horiz-adv-x="1892" d="M94 524v33q0 158 59 281t166.5 193.5t252.5 70.5q150 0 259 -73.5t165 -198.5q59 126 166 199.5t234 72.5q202 0 314.5 -126.5t112.5 -335.5v-102h-764v-28q0 -119 43.5 -216t123 -155t185.5 -58q118 0 196 33t130 87l51 -83q-55 -59 -147 -98.5t-230 -39.5t-247.5 72.5 t-168.5 196.5q-56 -124 -164.5 -196.5t-256.5 -72.5q-146 0 -254 70.5t-167 193.5t-59 280zM214 524q0 -118 41 -219t121 -162.5t198 -61.5q117 0 196.5 61.5t120.5 162.5t41 219v33q0 117 -41 218t-121 163.5t-198 62.5q-117 0 -196.5 -62.5t-120.5 -163.5t-41 -218v-33z M1064 640h640v29q0 91 -36 166.5t-105 120.5t-167 45q-89 0 -159.5 -47.5t-115 -129.5t-57.5 -184z" />
<glyph unicode="&#x2c6;" horiz-adv-x="880" d="M161 1259v12l238 255h75l241 -257v-10h-110l-169 183l-167 -183h-108z" />
<glyph unicode="&#x2dc;" horiz-adv-x="892" d="M107 1268q0 95 56 153.5t139 58.5q47 0 81.5 -16.5t64 -38.5t60.5 -38.5t72 -16.5q45 0 77.5 33t32.5 89l90 -6q0 -96 -57 -154.5t-139 -58.5q-52 0 -86.5 16.5t-61.5 38.5t-56.5 38.5t-72.5 16.5q-47 0 -79 -32t-32 -87z" />
<glyph unicode="&#x2000;" horiz-adv-x="953" />
<glyph unicode="&#x2001;" horiz-adv-x="1906" />
<glyph unicode="&#x2002;" horiz-adv-x="953" />
<glyph unicode="&#x2003;" horiz-adv-x="1906" />
<glyph unicode="&#x2004;" horiz-adv-x="635" />
<glyph unicode="&#x2005;" horiz-adv-x="476" />
<glyph unicode="&#x2006;" horiz-adv-x="317" />
<glyph unicode="&#x2007;" horiz-adv-x="317" />
<glyph unicode="&#x2008;" horiz-adv-x="238" />
<glyph unicode="&#x2009;" horiz-adv-x="381" />
<glyph unicode="&#x200a;" horiz-adv-x="105" />
<glyph unicode="&#x2010;" horiz-adv-x="586" d="M49 592v102h480v-102h-480z" />
<glyph unicode="&#x2011;" horiz-adv-x="586" d="M49 592v102h480v-102h-480z" />
<glyph unicode="&#x2012;" horiz-adv-x="586" d="M49 592v102h480v-102h-480z" />
<glyph unicode="&#x2013;" horiz-adv-x="1334" d="M158 687v101h1002v-101h-1002z" />
<glyph unicode="&#x2014;" horiz-adv-x="1580" d="M125 687v101h1336v-101h-1336z" />
<glyph unicode="&#x2018;" horiz-adv-x="365" d="M99 1122v112q0 91 37.5 176.5t102.5 144.5l71 -52q-46 -62 -69.5 -124.5t-23.5 -142.5v-114h-118z" />
<glyph unicode="&#x2019;" horiz-adv-x="365" d="M63 1151q46 63 69 125.5t23 142.5v117h119v-115q0 -92 -37.5 -177t-102.5 -144z" />
<glyph unicode="&#x201a;" horiz-adv-x="354" d="M42 -180q46 63 69 125.5t23 141.5v119h119v-116q0 -92 -37.5 -177t-102.5 -144z" />
<glyph unicode="&#x201c;" horiz-adv-x="612" d="M100 1122v112q0 91 37.5 176.5t102.5 144.5l71 -52q-46 -62 -69.5 -124.5t-23.5 -142.5v-114h-118zM351 1122v112q0 91 37.5 176.5t102.5 144.5l71 -52q-46 -62 -69.5 -124.5t-23.5 -142.5v-114h-118z" />
<glyph unicode="&#x201d;" horiz-adv-x="617" d="M69 1151q46 63 69 125.5t23 142.5v117h119v-115q0 -92 -37.5 -177t-102.5 -144zM313 1151q46 63 69 125.5t23 142.5v117h119v-115q0 -92 -37.5 -177t-102.5 -144z" />
<glyph unicode="&#x201e;" horiz-adv-x="594" d="M42 -189q46 64 69 129t23 147v150h119v-147q0 -94 -37.5 -182t-102.5 -148zM275 -189q46 64 69 129t23 147v150h120v-147q0 -94 -37.5 -182t-103.5 -148z" />
<glyph unicode="&#x2022;" horiz-adv-x="663" d="M147 717v35q0 78 49.5 128.5t134.5 50.5q87 0 137 -51t50 -128v-35q0 -77 -49.5 -126.5t-136.5 -49.5q-85 0 -135 49.5t-50 126.5z" />
<glyph unicode="&#x2026;" horiz-adv-x="1313" d="M167 73q0 35 22.5 59t61.5 24q40 0 63 -24t23 -59t-23 -58t-63 -23q-39 0 -61.5 23t-22.5 58zM577 73q0 35 22.5 59t61.5 24q40 0 63 -24t23 -59t-23 -58t-63 -23q-39 0 -61.5 23t-22.5 58zM970 73q0 35 22.5 59t61.5 24q40 0 63 -24t23 -59t-23 -58t-63 -23 q-39 0 -61.5 23t-22.5 58z" />
<glyph unicode="&#x202f;" horiz-adv-x="381" />
<glyph unicode="&#x2039;" horiz-adv-x="609" d="M108 547v19l295 378h106l-276 -388l276 -388h-106z" />
<glyph unicode="&#x203a;" horiz-adv-x="609" d="M98 162l276 389l-276 393h106l294 -384v-19l-294 -379h-106z" />
<glyph unicode="&#x205f;" horiz-adv-x="476" />
<glyph unicode="&#x20ac;" d="M84 563v89h191v165h-191v89h191v2q0 188 68 314.5t189 190t279 63.5q60 0 116 -8.5t115 -22.5l-10 -108q-49 15 -105.5 25t-114.5 10q-190 0 -301.5 -114t-111.5 -348v-4h419v-89h-419v-165h419v-89h-419v-17q0 -230 113 -346.5t301 -116.5q116 0 219 34l10 -107 q-111 -31 -230 -31q-158 0 -279 64t-189.5 190t-68.5 313v17h-191z" />
<glyph unicode="&#x25fc;" horiz-adv-x="1080" d="M0 0v1080h1080v-1080h-1080z" />
<glyph unicode="&#xfb01;" horiz-adv-x="1101" d="M49 984v98h179v115q0 174 96.5 267t263.5 93q133 0 275 -59l-19 -102q-53 22 -111 37t-138 15q-247 0 -247 -251v-115h253v-98h-253v-984h-120v984h-179zM809 0v1082h120v-1082h-120z" />
<glyph unicode="&#xfb02;" horiz-adv-x="1115" d="M64 984v98h179v135q0 164 86 252t241 88q68 0 171.5 -19t201.5 -42v-1496h-120v1422q-69 13 -130 21.5t-116 8.5q-102 0 -158.5 -61.5t-56.5 -173.5v-135h259v-98h-259v-984h-119v984h-179z" />
<glyph unicode="&#xfb03;" horiz-adv-x="1696" d="M64 984v98h179v135q0 164 85 252t234 88q31 0 64 -4t64 -13l-9 -99q-25 5 -50.5 8t-59.5 3q-97 0 -153 -61.5t-56 -173.5v-135h461v115q0 174 96.5 267t263.5 93q133 0 276 -59l-20 -102q-53 22 -111 37t-138 15q-247 0 -247 -251v-115h254v-98h-254v-984h-120v984h-461 v-984h-119v984h-179zM1404 0v1082h119v-1082h-119z" />
<glyph unicode="&#xfb04;" horiz-adv-x="1696" d="M64 984v98h179v135q0 164 85 252t234 88q31 0 64 -4t64 -13l-9 -99q-25 5 -50.5 8t-59.5 3q-97 0 -153 -61.5t-56 -173.5v-135h461v135q0 164 86.5 252t240.5 88q69 0 172.5 -19t200.5 -42v-1496h-119v1422q-69 13 -130.5 21.5t-115.5 8.5q-103 0 -159 -61.5t-56 -173.5 v-135h258v-98h-258v-984h-120v984h-461v-984h-119v984h-179z" />
</font>
</defs>
</svg>
