<svg id="svgOutermostRootElement" viewBox="0 0 100 100" xmlns="http://www.w3.org/2000/svg" xmlns:xlink="http://www.w3.org/1999/xlink"><defs><style>
    .sprite-symbol-usage {display: none;}
    .sprite-symbol-usage:target {display: inline;}
  </style><symbol viewBox="0 0 17.012 18.966" id="account-icon"><defs><style>#account-icon .prefix__cls-1{fill:#4a4a4a;stroke:#4a4a4a}</style></defs><g id="account-icon_prefix__Group_3911" transform="translate(-296.88 -272.155)"><path id="account-icon_prefix__Path_1417" d="M306.24 515.062h-1.708a7.16 7.16 0 00-7.152 7.152v.033a1.2 1.2 0 001.2 1.2h13.607a1.2 1.2 0 001.2-1.2v-.033a7.16 7.16 0 00-7.147-7.152zm6.354 7.185a.4.4 0 01-.4.4h-13.612a.4.4 0 01-.4-.4v-.033a6.361 6.361 0 016.354-6.354h1.708a6.361 6.361 0 016.354 6.354z" class="prefix__cls-1" transform="translate(0 -232.829)" /><path id="account-icon_prefix__Path_1418" d="M394.937 281.3a4.322 4.322 0 10-4.322-4.322 4.327 4.327 0 004.322 4.322zm0-7.846a3.524 3.524 0 11-3.524 3.524 3.528 3.528 0 013.524-3.525z" class="prefix__cls-1" transform="translate(-89.551)" /></g></symbol><symbol viewBox="0 0 87.519 28" id="apple"><defs><style>#apple .cls-2{opacity:.12}#apple .cls-4,#apple .cls-5{fill:#fff}#apple .cls-5{stroke:#fff;stroke-miterlimit:10;stroke-width:.2px}</style></defs><g id="apple_Group_3352"><path id="apple_Path_504" d="M18.5 0h79.722a3.5 3.5 0 013.5 3.5v21a3.5 3.5 0 01-3.5 3.5H18.5a3.5 3.5 0 01-3.5-3.5v-21A3.5 3.5 0 0118.5 0z" transform="translate(-14.203)" /><g id="apple_Group_3351" transform="translate(0 4.998)"><g id="apple_Group_3350" transform="translate(0 11.894)"><path id="apple_Path_495" d="M32.051 34.132L21.89 39.9a1.166 1.166 0 01-1.4.008l-.053.052.052.051a1.166 1.166 0 001.4-.008L32.116 34.2z" transform="translate(-20.112 -34.132)" opacity=".2" /><path id="apple_Path_496" d="M20.3 41.9a1.4 1.4 0 01-.323-.983v.1A1.4 1.4 0 0020.3 42l.053-.052z" class="cls-2" transform="translate(-19.973 -36.166)" /></g><path id="apple_Path_497" d="M40.519 30.91l-3.49 1.983.065.065 3.425-1.946A1.229 1.229 0 0041.253 30a1.3 1.3 0 01-.734.91z" class="cls-2" transform="translate(-25.09 -20.999)" /><path id="apple_Path_498" d="M21.752 17.478L35.4 25.234a1.3 1.3 0 01.734.909 1.227 1.227 0 00-.734-1.011l-13.648-7.756c-.979-.556-1.779-.094-1.779 1.026v.1c0-1.118.8-1.58 1.779-1.024z" transform="translate(-19.973 -17.141)" opacity=".25" fill="#fff" /></g><g id="apple__Group_" transform="translate(8.512 5.124)"><g id="apple__Group_2"><path id="apple__Path_" d="M104.456 19.1a4.011 4.011 0 011.91-3.366 4.106 4.106 0 00-3.235-1.749c-1.361-.143-2.681.814-3.374.814s-1.775-.8-2.925-.777a4.308 4.308 0 00-3.626 2.211c-1.568 2.714-.4 6.7 1.1 8.9.751 1.074 1.629 2.274 2.778 2.232 1.124-.047 1.544-.717 2.9-.717s1.739.717 2.911.69c1.206-.02 1.967-1.079 2.692-2.164a8.886 8.886 0 001.231-2.507 3.876 3.876 0 01-2.362-3.567z" class="cls-4" transform="translate(-92.462 -9.715)" /><path id="apple__Path_2" d="M103.912 11.55a3.95 3.95 0 00.9-2.829 4.018 4.018 0 00-2.6 1.345 3.758 3.758 0 00-.927 2.725 3.323 3.323 0 002.627-1.241z" class="cls-4" transform="translate(-94.132 -8.72)" /></g></g><g id="apple_Group_3361" transform="translate(27.421 12.043)"><path id="apple_Path_507" d="M14.825 24.409h-3.307l-.794 2.345h-1.4l3.132-8.676h1.455l3.132 8.676h-1.424zm-2.965-1.082h2.621l-1.291-3.806h-.036z" class="cls-4" transform="translate(-9.323 -17.933)" /><path id="apple_Path_508" d="M27.486 24.576c0 1.966-1.052 3.229-2.64 3.229a2.144 2.144 0 01-1.99-1.107h-.03v3.133h-1.3v-8.418h1.257v1.052h.024a2.244 2.244 0 012.014-1.118c1.606 0 2.665 1.269 2.665 3.229zm-1.335 0c0-1.281-.662-2.123-1.672-2.123-.992 0-1.659.86-1.659 2.123s.667 2.128 1.659 2.128c1.01 0 1.672-.836 1.672-2.128z" class="cls-4" transform="translate(-13.001 -18.918)" /><path id="apple_Path_509" d="M37.45 24.576c0 1.966-1.052 3.229-2.64 3.229a2.144 2.144 0 01-1.99-1.105h-.03v3.133h-1.3v-8.42h1.257v1.052h.024a2.244 2.244 0 012.014-1.118c1.607 0 2.665 1.269 2.665 3.229zm-1.335 0c0-1.281-.662-2.123-1.672-2.123-.992 0-1.659.86-1.659 2.123s.667 2.128 1.659 2.128c1.011-.004 1.673-.835 1.673-2.128z" class="cls-4" transform="translate(-16.003 -18.918)" /><path id="apple_Path_510" d="M46.033 24.274c.1.86.932 1.425 2.074 1.425 1.094 0 1.882-.565 1.882-1.341 0-.673-.475-1.077-1.6-1.353l-1.124-.271c-1.593-.385-2.333-1.13-2.333-2.339 0-1.5 1.3-2.525 3.157-2.525 1.833 0 3.09 1.028 3.132 2.525h-1.31c-.078-.866-.794-1.388-1.84-1.388s-1.762.529-1.762 1.3c0 .613.457.974 1.575 1.251l.956.235c1.78.421 2.52 1.136 2.52 2.405 0 1.623-1.293 2.64-3.349 2.64-1.924 0-3.223-.993-3.307-2.562z" class="cls-4" transform="translate(-19.985 -17.871)" /><path id="apple_Path_511" d="M57.283 19.3v1.5h1.2v1.028h-1.2v3.487c0 .542.241.794.77.794a4.057 4.057 0 00.427-.03V27.1a3.565 3.565 0 01-.721.06c-1.281 0-1.78-.481-1.78-1.708v-3.627h-.92V20.8h.92v-1.5z" class="cls-4" transform="translate(-23.105 -18.302)" /><path id="apple_Path_512" d="M60.961 24.572a3.009 3.009 0 116 0 3.009 3.009 0 11-6 0zm4.678 0c0-1.365-.626-2.171-1.678-2.171s-1.677.812-1.677 2.171.625 2.17 1.677 2.17 1.678-.8 1.678-2.17z" class="cls-4" transform="translate(-24.883 -18.914)" /><path id="apple_Path_513" d="M71.082 21.413h1.238v1.077h.03a1.509 1.509 0 011.521-1.143 2 2 0 01.445.048v1.215a1.815 1.815 0 00-.583-.078 1.308 1.308 0 00-1.353 1.455v3.752h-1.3z" class="cls-4" transform="translate(-27.933 -18.918)" /><path id="apple_Path_514" d="M81.819 25.876a2.539 2.539 0 01-2.719 1.937 2.879 2.879 0 01-2.987-3.213c0-1.984 1.148-3.271 2.928-3.271 1.75 0 2.851 1.2 2.851 3.12v.451h-4.468v.078a1.647 1.647 0 001.7 1.792 1.431 1.431 0 001.461-.89zm-4.389-1.887h3.162a1.521 1.521 0 00-1.552-1.605 1.6 1.6 0 00-1.611 1.605z" class="cls-4" transform="translate(-29.449 -18.914)" /></g></g><g id="apple_Group_3362" transform="translate(62.407 4.879)"><g id="apple_Group_3353"><path id="apple_Path_499" d="M110.773 17.566v-.6h1.32a1.917 1.917 0 011.384.414 1.872 1.872 0 01.417 1.366v1.924h.466v.6h-3.753v-.6h2.642v-1.927a1.278 1.278 0 00-.261-.911 1.235 1.235 0 00-.9-.267z" class="cls-5" transform="translate(-110.608 -16.97)" /><path id="apple_Path_500" d="M120.186 17.566h-.666v-.6h2.323a1.938 1.938 0 011.387.412 1.861 1.861 0 01.42 1.368v2.519h-.644v-2.522a1.278 1.278 0 00-.261-.911 1.247 1.247 0 00-.909-.267h-1.006V19.6a3.329 3.329 0 01-.118 1 .89.89 0 01-.377.51 1.644 1.644 0 01-.816.155h-.039v-.6h.06a.715.715 0 00.386-.09.492.492 0 00.2-.279 2.03 2.03 0 00.06-.571z" class="cls-5" transform="translate(-113.27 -16.97)" /><path id="apple_Path_501" d="M126.022 20.7a5.137 5.137 0 001.52-.179l-1.3-3.552h.711l1.149 3.279a1.938 1.938 0 00.7-1.084 8.388 8.388 0 00.214-2.2h.675a7.422 7.422 0 01-.345 2.537 2.532 2.532 0 01-1.124 1.359 5.026 5.026 0 01-2.206.518z" class="cls-5" transform="translate(-114.714 -16.97)" /><path id="apple_Path_502" d="M134.844 19.181q0 2.088-1.975 2.088h-1.118v-.6h1.131a1.234 1.234 0 00.988-.372 1.674 1.674 0 00.318-1.114v-.137a1.662 1.662 0 00-.321-1.116 1.236 1.236 0 00-.986-.37h-1.131v-.6h1.118q1.975 0 1.975 2.088z" class="cls-5" transform="translate(-115.914 -16.97)" /></g></g></symbol><symbol viewBox="0 0 18.669 18.195" id="arrow-icon"><path d="M10.732 16.978l-.925.925a1 1 0 01-1.413 0l-8.1-8.1a1 1 0 010-1.413l8.1-8.1a1 1 0 011.413 0l.925.925a1 1 0 01-.017 1.429L5.694 7.431h11.975a1 1 0 011 1v1.333a1 1 0 01-1 1H5.694l5.021 4.786a.994.994 0 01.017 1.428z" fill="#323f96" /></symbol><symbol viewBox="0 0 18.669 18.195" id="arrow-icon-rotated"><path fill="#323f96" d="M17.217 7.7l.925.925a1 1 0 010 1.413l-8.1 8.1a1 1 0 01-1.413 0l-8.1-8.1a1 1 0 010-1.413l.925-.925a1 1 0 011.429.017l4.787 5.02V.764a1 1 0 011-1h1.333a1 1 0 011 1v11.975l4.786-5.021a.994.994 0 011.428-.017z" /></symbol><symbol viewBox="0 0 24.42 17.695" id="category-icon"><path d="M22.142 16.694a11.216 11.216 0 00-5.849-15.643.607.607 0 00-.823.569v7.1l-3.261 1.4-3.261-1.4v-7.1a.607.607 0 00-.823-.569 11.216 11.216 0 00-5.849 15.643z" fill="none" stroke="#4a4a4a" stroke-width="2" /></symbol><symbol viewBox="0 0 24.42 17.695" id="category-icon-light"><path d="M22.142 16.694a11.216 11.216 0 00-5.849-15.643.607.607 0 00-.823.569v7.1l-3.261 1.4-3.261-1.4v-7.1a.607.607 0 00-.823-.569 11.216 11.216 0 00-5.849 15.643z" fill="none" stroke="#efefef" stroke-width="2" /></symbol><symbol viewBox="0 0 17.59 13.41" id="check-mark"><path d="M5.59 10.58L1.42 6.41 0 7.82l5.59 5.59 12-12L16.18 0z" fill="#083799" /></symbol><symbol viewBox="0 0 14.508 14.508" id="clock-icon"><path d="M7.247 0a7.254 7.254 0 107.261 7.254A7.25 7.25 0 007.247 0zm.007 13.057a5.8 5.8 0 115.8-5.8 5.8 5.8 0 01-5.8 5.8zm.363-9.43H6.529v4.352l3.808 2.285.544-.892-3.264-1.937z" fill="#4a4a4a" /></symbol><symbol viewBox="0 0 20.3 15.562" id="currency-icon--ils"><path d="M1.238 14.912a.562.562 0 01-.417-.175.584.584 0 01-.171-.425V1.25A.573.573 0 01.822.812.584.584 0 011.238.65H7.98a6.948 6.948 0 014.9 1.5 6.173 6.173 0 011.594 4.7v2.967a.584.584 0 01-.172.425.562.562 0 01-.417.175H11.95a.562.562 0 01-.417-.175.584.584 0 01-.172-.425V6.869q0-3.572-3.506-3.572H3.764v11.015a.608.608 0 01-.159.425.552.552 0 01-.429.175zm5.173 0a.562.562 0 01-.417-.175.584.584 0 01-.172-.425V5.75a.573.573 0 01.172-.437.584.584 0 01.417-.163H8.35a.574.574 0 01.429.162.6.6 0 01.159.437v6.519h4.094q3.506 0 3.506-3.572V1.25a.584.584 0 01.172-.425.562.562 0 01.415-.175h1.937a.574.574 0 01.429.162.6.6 0 01.159.438v7.468a6.173 6.173 0 01-1.594 4.7 6.948 6.948 0 01-4.9 1.5z" fill="#4a4a4a" stroke="#fff" stroke-width="1.3" /></symbol><symbol viewBox="0 0 18.411 14.072" id="envelope-icon"><path d="M16.71.1H1.7A1.6 1.6 0 00.1 1.7v10.671a1.6 1.6 0 001.6 1.6h15.01a1.6 1.6 0 001.6-1.6V1.7a1.6 1.6 0 00-1.6-1.6zm-.221 1.067l-7.25 7.25-7.313-7.25zM1.167 12.15V1.916l5.139 5.095zm.755.754l5.142-5.142 1.8 1.786a.534.534 0 00.753 0l1.757-1.757 5.115 5.109zm15.322-.755L12.13 7.036l5.114-5.114z" fill="#4a4a4a" stroke="#4a4a4a" stroke-width=".2" /></symbol><symbol viewBox="0 0 19.799 19.799" id="exit-icon"><g fill="none" stroke="#4a4a4a" stroke-linecap="round" stroke-width="2"><path d="M18.385 1.414l-16.97 16.97M18.385 18.385L1.414 1.414" /></g></symbol><symbol viewBox="0 0 19.799 19.799" id="exit-icon--blue"><g fill="none" stroke="#083799" stroke-linecap="round" stroke-width="2"><path d="M18.385 1.414l-16.97 16.97M18.385 18.385L1.414 1.414" /></g></symbol><symbol viewBox="0 0 11.299 11.299" id="exit-icon--sm"><g fill="none" stroke="#083799" stroke-linecap="round" stroke-width="2"><path d="M9.886 1.415l-8.47 8.47M9.885 9.885l-8.47-8.47" /></g></symbol><symbol viewBox="0 0 26.727 26.727" id="facebook-icon"><path d="M23.386 0H3.341A3.344 3.344 0 000 3.341v20.045a3.344 3.344 0 003.341 3.341h20.045a3.344 3.344 0 003.341-3.341V3.341A3.344 3.344 0 0023.386 0z" fill="#1976d2" /><path d="M22.55 13.363h-4.176v-3.341c0-.922.748-.835 1.67-.835h1.67V5.011h-3.341a5.011 5.011 0 00-5.011 5.011v3.341h-3.34v4.176h3.341v9.187h5.011v-9.187h2.506z" fill="#fafafa" /></symbol><symbol viewBox="0 0 15.639 15.5" id="filter-by-icon"><defs><style>#filter-by-icon .cls-1{fill:none;stroke:#083799;stroke-linecap:round;stroke-width:1.5px}#filter-by-icon .cls-2{fill:#313f95}</style></defs><g id="filter-by-icon_Group_3989" transform="translate(-390.181 -522.75)"><path id="filter-by-icon_Line_7" class="cls-1" transform="translate(390.931 524.5)" d="M0 0h14.139" /><path id="filter-by-icon_Line_8" class="cls-1" transform="translate(390.931 530.5)" d="M0 0h14.139" /><path id="filter-by-icon_Line_9" class="cls-1" transform="translate(390.931 536.5)" d="M0 0h14.139" /><circle id="filter-by-icon_Ellipse_1" class="cls-2" cx="1.75" cy="1.75" r="1.75" transform="translate(398 522.75)" /><circle id="filter-by-icon_Ellipse_2" class="cls-2" cx="1.75" cy="1.75" r="1.75" transform="translate(394 528.75)" /><circle id="filter-by-icon_Ellipse_3" class="cls-2" cx="1.75" cy="1.75" r="1.75" transform="translate(399.75 534.75)" /></g></symbol><symbol viewBox="0 0 17.131 11.42" id="filter-icon"><path d="M6.662 11.421h3.807v-1.9H6.662zM0 0v1.9h17.131V0zm2.855 6.662h11.421v-1.9H2.855z" fill="#083799" /></symbol><symbol viewBox="0 0 15.774 15.784" id="filtering-icon"><path d="M14.928.25H.85a.6.6 0 00-.6.6 5.828 5.828 0 001.954 4.349l2.613 2.322a2.126 2.126 0 01.713 1.588v5.819a.6.6 0 00.928.5l3.52-2.347a.6.6 0 00.266-.5V9.109a2.126 2.126 0 01.713-1.588l2.613-2.322A5.828 5.828 0 0015.524.85a.6.6 0 00-.596-.6zm-2.15 4.057l-2.614 2.322a3.321 3.321 0 00-1.114 2.48v3.152l-2.326 1.552v-4.7A3.321 3.321 0 005.61 6.629L2.997 4.307a4.635 4.635 0 01-1.515-2.864h12.81a4.634 4.634 0 01-1.515 2.864zm0 0" fill="#083599" stroke="#083599" stroke-width=".5" /></symbol><symbol viewBox="0 0 94.5 28" id="google"><defs><style>#google .cls-9{fill:#fff}#google .cls-7{opacity:.12}#google .cls-9{stroke:#fff;stroke-miterlimit:10;stroke-width:.2px}</style></defs><g id="google_Group_3352"><path id="google_Path_504" d="M3.5 0H91a3.5 3.5 0 013.5 3.5v21A3.5 3.5 0 0191 28H3.5A3.5 3.5 0 010 24.5v-21A3.5 3.5 0 013.5 0z" /><path id="google_Path_490" d="M70.008 30.34A2.977 2.977 0 1073 33.318a2.934 2.934 0 00-2.992-2.978zm0 4.781a1.809 1.809 0 111.68-1.8 1.722 1.722 0 01-1.68 1.8zm-6.519-4.781a2.977 2.977 0 102.988 2.977 2.935 2.935 0 00-2.988-2.977zm0 4.781a1.809 1.809 0 111.68-1.8 1.722 1.722 0 01-1.68 1.8zm-7.755-3.867v1.263h3.022a2.636 2.636 0 01-.687 1.59 3.094 3.094 0 01-2.334.925 3.361 3.361 0 010-6.721 3.22 3.22 0 012.278.9l.891-.891a4.407 4.407 0 00-3.169-1.275 4.624 4.624 0 100 9.248A4.225 4.225 0 0058.958 35a4.173 4.173 0 001.094-2.955 4.081 4.081 0 00-.068-.789zm31.715.981A2.767 2.767 0 0084.9 30.34a2.829 2.829 0 00-2.808 2.977 2.913 2.913 0 002.955 2.977 2.961 2.961 0 002.481-1.319l-1.015-.675a1.7 1.7 0 01-1.466.823 1.515 1.515 0 01-1.444-.9l3.981-1.647zm-4.06.993a1.633 1.633 0 011.556-1.737 1.152 1.152 0 011.105.631zm-3.236 2.887h1.307v-8.752h-1.307zm-2.143-5.109h-.045a2.063 2.063 0 00-1.565-.666 2.98 2.98 0 000 5.954 2.028 2.028 0 001.567-.677h.045v.429c0 1.139-.608 1.748-1.59 1.748a1.648 1.648 0 01-1.5-1.061l-1.139.474a2.837 2.837 0 002.639 1.759c1.534 0 2.831-.9 2.831-3.1V30.52h-1.244zm-1.5 4.116a1.811 1.811 0 010-3.608 1.819 1.819 0 010 3.608zm17.067-7.758h-3.13v8.751h1.305V32.8h1.824a2.722 2.722 0 100-5.435zm.034 4.217h-1.859v-3h1.858a1.5 1.5 0 110 3zm8.072-1.256a2.454 2.454 0 00-2.331 1.339l1.16.484a1.237 1.237 0 011.193-.642 1.257 1.257 0 011.373 1.126v.09a2.889 2.889 0 00-1.362-.337c-1.249 0-2.522.687-2.522 1.97a2.022 2.022 0 002.173 1.926 1.843 1.843 0 001.667-.856h.045v.675h1.261v-3.356a2.4 2.4 0 00-2.657-2.42zm-.158 4.8c-.428 0-1.025-.213-1.025-.743 0-.676.743-.935 1.385-.935a2.33 2.33 0 011.193.293 1.583 1.583 0 01-1.553 1.38zm7.407-4.6l-1.5 3.794h-.045l-1.554-3.794h-1.407l2.33 5.3-1.329 2.95h1.362l3.592-8.252zm-11.765 5.6h1.306v-8.762h-1.305z" transform="translate(-22.313 -15.114)" fill="#fff" /><g id="google_Group_3351" transform="translate(6.981 4.998)"><path id="google_Path_491" d="M20.3 17.516a1.4 1.4 0 00-.323.983v15.482a1.4 1.4 0 00.323.983l.052.05 8.672-8.672v-.2l-8.672-8.673z" transform="translate(-19.973 -17.238)" fill="url(#google_linear-gradient)" /><path id="google_Path_492" d="M35.789 31.712L32.9 28.82v-.2l2.892-2.892.065.038 3.425 1.946a1.063 1.063 0 010 2.021l-3.425 1.946z" transform="translate(-23.851 -19.716)" fill="url(#google_linear-gradient-2)" /><path id="google_Path_493" d="M32.116 32.958L29.159 30l-8.724 8.724a1.139 1.139 0 001.455.043l10.226-5.81" transform="translate(-20.112 -20.999)" fill="url(#google_linear-gradient-3)" /><path id="google_Path_494" d="M32.116 23.186l-10.226-5.81a1.139 1.139 0 00-1.455.043l8.724 8.724z" transform="translate(-20.112 -17.14)" fill="url(#google_linear-gradient-4)" /><g id="google_Group_3350" transform="translate(0 11.894)"><path id="google_Path_495" d="M32.051 34.132L21.89 39.9a1.166 1.166 0 01-1.4.008l-.053.052.052.051a1.166 1.166 0 001.4-.008L32.116 34.2z" transform="translate(-20.112 -34.132)" opacity=".2" /><path id="google_Path_496" d="M20.3 41.9a1.4 1.4 0 01-.323-.983v.1A1.4 1.4 0 0020.3 42l.053-.052z" class="cls-7" transform="translate(-19.973 -36.166)" /></g><path id="google_Path_497" d="M40.519 30.91l-3.49 1.983.065.065 3.425-1.946A1.229 1.229 0 0041.253 30a1.3 1.3 0 01-.734.91z" class="cls-7" transform="translate(-25.09 -20.999)" /><path id="google_Path_498" d="M21.752 17.478L35.4 25.234a1.3 1.3 0 01.734.909 1.227 1.227 0 00-.734-1.011l-13.648-7.756c-.979-.556-1.779-.094-1.779 1.026v.1c0-1.118.8-1.58 1.779-1.024z" transform="translate(-19.973 -17.14)" opacity=".25" fill="#fff" /></g></g><g id="google_Group_3355" transform="translate(69.388 4.879)"><g id="google_Group_3353"><path id="google_Path_499" d="M110.773 17.566v-.6h1.32a1.917 1.917 0 011.384.414 1.872 1.872 0 01.417 1.366v1.924h.466v.6h-3.753v-.6h2.642v-1.927a1.278 1.278 0 00-.261-.911 1.235 1.235 0 00-.9-.267z" class="cls-9" transform="translate(-110.608 -16.97)" /><path id="google_Path_500" d="M120.186 17.566h-.666v-.6h2.323a1.938 1.938 0 011.387.412 1.861 1.861 0 01.42 1.368v2.519h-.644v-2.522a1.278 1.278 0 00-.261-.911 1.247 1.247 0 00-.909-.267h-1.006V19.6a3.329 3.329 0 01-.118 1 .89.89 0 01-.377.51 1.644 1.644 0 01-.816.155h-.039v-.6h.06a.715.715 0 00.386-.09.492.492 0 00.2-.279 2.03 2.03 0 00.06-.571z" class="cls-9" transform="translate(-113.27 -16.97)" /><path id="google_Path_501" d="M126.022 20.7a5.137 5.137 0 001.52-.179l-1.3-3.552h.711l1.149 3.279a1.938 1.938 0 00.7-1.084 8.388 8.388 0 00.214-2.2h.675a7.422 7.422 0 01-.345 2.537 2.532 2.532 0 01-1.124 1.359 5.026 5.026 0 01-2.206.518z" class="cls-9" transform="translate(-114.714 -16.97)" /><path id="google_Path_502" d="M134.844 19.181q0 2.088-1.975 2.088h-1.118v-.6h1.131a1.234 1.234 0 00.988-.372 1.674 1.674 0 00.318-1.114v-.137a1.662 1.662 0 00-.321-1.116 1.236 1.236 0 00-.986-.37h-1.131v-.6h1.118q1.975 0 1.975 2.088z" class="cls-9" transform="translate(-115.914 -16.97)" /></g></g></symbol><linearGradient id="google_linear-gradient" x1=".915" x2="-.383" y1="6.614" y2="5.945" gradientUnits="objectBoundingBox"><stop offset="0" stop-color="#00a0ff" /><stop offset=".007" stop-color="#00a1ff" /><stop offset=".26" stop-color="#00beff" /><stop offset=".512" stop-color="#00d2ff" /><stop offset=".76" stop-color="#00dfff" /><stop offset="1" stop-color="#00e3ff" /></linearGradient><linearGradient id="google_linear-gradient-2" x1="1.076" x2="-1.305" y1="17.098" y2="17.098" gradientUnits="objectBoundingBox"><stop offset="0" stop-color="#ffe000" /><stop offset=".409" stop-color="#ffbd00" /><stop offset=".775" stop-color="orange" /><stop offset="1" stop-color="#ff9c00" /></linearGradient><linearGradient id="google_linear-gradient-3" x1=".862" x2="-.501" y1="10.863" y2="9.093" gradientUnits="objectBoundingBox"><stop offset="0" stop-color="#ff3a44" /><stop offset="1" stop-color="#c31162" /></linearGradient><linearGradient id="google_linear-gradient-4" x1="-.188" x2=".421" y1="13.583" y2="12.793" gradientUnits="objectBoundingBox"><stop offset="0" stop-color="#32a071" /><stop offset=".068" stop-color="#2da771" /><stop offset=".476" stop-color="#15cf74" /><stop offset=".801" stop-color="#06e775" /><stop offset="1" stop-color="#00f076" /></linearGradient><symbol viewBox="0 0 19 16" id="list-icon"><defs><style>#list-icon .prefix__cls-1{fill:#4a4a4a}</style></defs><g id="list-icon_prefix__Group_3912" transform="translate(-336 -200)"><rect id="list-icon_prefix__Rectangle_899" width="2" height="2" class="prefix__cls-1" rx="1" transform="translate(336 200)" /><rect id="list-icon_prefix__Rectangle_900" width="15" height="2" class="prefix__cls-1" rx="1" transform="translate(340 200)" /><rect id="list-icon_prefix__Rectangle_899-2" width="2" height="2" class="prefix__cls-1" rx="1" transform="translate(336 207)" /><rect id="list-icon_prefix__Rectangle_900-2" width="15" height="2" class="prefix__cls-1" rx="1" transform="translate(340 207)" /><rect id="list-icon_prefix__Rectangle_899-3" width="2" height="2" class="prefix__cls-1" rx="1" transform="translate(336 214)" /><rect id="list-icon_prefix__Rectangle_900-3" width="15" height="2" class="prefix__cls-1" rx="1" transform="translate(340 214)" /></g></symbol><symbol viewBox="0 0 16 16" id="location-icon"><path d="M8 5.091A2.909 2.909 0 1010.909 8 2.908 2.908 0 008 5.091zm6.5 2.182A6.541 6.541 0 008.727 1.5V0H7.273v1.5A6.541 6.541 0 001.5 7.273H0v1.454h1.5A6.541 6.541 0 007.273 14.5V16h1.454v-1.5A6.541 6.541 0 0014.5 8.727H16V7.273h-1.5zM8 13.091A5.091 5.091 0 1113.091 8 5.087 5.087 0 018 13.091z" fill="#083799" /></symbol><symbol viewBox="0 0 16.261 22.916" id="location-icon--light"><defs><style>#location-icon--light .cls-1{fill:#efefef;stroke:#efefef;stroke-width:.5px}</style></defs><g id="location-icon--light_location-icon" transform="translate(.25 .25)"><g id="location-icon--light_Group_12"><g id="location-icon--light_Group_11"><path id="location-icon--light_Path_13" d="M83.881 0a7.882 7.882 0 00-6.7 12.025l6.256 10.081a.657.657 0 00.558.31H84a.657.657 0 00.558-.319l6.1-10.179A7.882 7.882 0 0083.881 0zm5.642 11.244L83.98 20.5l-5.687-9.165a6.572 6.572 0 1111.23-.089z" class="cls-1" transform="translate(-76)" /></g></g><g id="location-icon--light_Group_14" transform="translate(3.94 3.94)"><g id="location-icon--light_Group_13"><path id="location-icon--light_Path_14" d="M169.94 90a3.94 3.94 0 103.94 3.94 3.945 3.945 0 00-3.94-3.94zm0 6.576a2.636 2.636 0 112.631-2.636 2.638 2.638 0 01-2.631 2.636z" class="cls-1" transform="translate(-166 -90)" /></g></g></g></symbol><symbol viewBox="0 0 16.629 21.746" id="lock-icon"><g fill="none"><path d="M8.314 0C5.2 2.6 3.248 2.718 0 2.718V13.17c0 4.171 2.959 5.259 8.314 8.576 5.355-3.317 8.314-4.405 8.314-8.576V2.718c-3.247 0-5.199-.118-8.314-2.718z" /><path d="M8.314 2.52C6.061 4.1 4.194 4.55 2 4.675v8.496c0 1.362.41 2.062 1.026 2.694.867.888 2.337 1.769 4.2 2.883.34.204.706.423 1.088.654.383-.23.748-.45 1.09-.654 1.862-1.114 3.332-1.995 4.199-2.883.616-.632 1.026-1.332 1.026-2.694V4.674c-2.195-.123-4.061-.575-6.315-2.153m0-2.521c3.115 2.597 5.067 2.718 8.315 2.718V13.17c0 4.17-2.96 5.259-8.315 8.576C2.96 18.429 0 17.34 0 13.17V2.718c3.248 0 5.2-.121 8.314-2.718z" fill="#4a4a4a" /></g><path d="M7.478 7.61H5.812v-.751a2.513 2.513 0 015 0v.751H9.146v-.751a.839.839 0 00-1.668 0v.751z" fill="#4a4a4a" /><path d="M6.313 9.61v3h4v-3h-4m-1-2h6a1 1 0 011 1v5a1 1 0 01-1 1h-6a1 1 0 01-1-1v-5a1 1 0 011-1z" fill="#4a4a4a" /></symbol><symbol viewBox="0 0 187 39.82" id="logo"><defs><style>#logo .cls-1{fill:none}#logo .cls-4{fill:#12255b}#logo .cls-5{fill:#fff}#logo .cls-6{clip-path:url(#logo_clip-path-2)}</style></defs><g id="logo_Group_1" transform="translate(.181 .364)"><path id="logo_Path_2" d="M94.458 80.775a5.282 5.282 0 00-5.245 5.678v27.642s0 5.68 5.245 5.68h173.36a5.283 5.283 0 005.246-5.68V86.452s0-5.678-5.246-5.678z" transform="translate(-89.212 -80.775)" fill="#c4091e" /></g><g id="logo_Group_3" transform="translate(0 .145)"><g id="logo_Group_2" clip-path="url(#logo_clip-path)"><path id="logo_Rectangle_1" d="M0 0h33.561v58.067H0z" class="cls-4" transform="translate(161.76 -11.795)" /></g></g><path id="logo_Rectangle_2" d="M0 0h4.211v18.323H0z" class="cls-5" transform="translate(64.048 10.376)" /><path id="logo_Rectangle_3" d="M0 0h4.214v16.731H0z" class="cls-5" transform="translate(88.286 17.297)" /><g id="logo_Group_4" transform="translate(9.888 10.291)"><path id="logo_Path_4" d="M202.437 93.62v3.413h11.274l-.735 8.783q-.258 2.848-2.9 2.847h-1.146v3.293h1.7a6.5 6.5 0 004.763-1.576q1.588-1.58 1.919-5.13l1.082-11.63z" class="cls-5" transform="translate(-124.039 -93.551)" /><path id="logo_Path_5" d="M221.849 101.955h-4.243v9.945h4.243zm7.585-7.583a13.25 13.25 0 00-5.447-.841q-3.552 0-6.635.274v3.381a47.712 47.712 0 015.085-.24q3.854 0 4.726.874a3.294 3.294 0 01.766 2.453V111.9h4.257V99.6q0-3.894-2.752-5.233M214.656 100q0-3.517-1.519-5.059-1.385-1.407-4.47-1.407a6.266 6.266 0 00-3.008.566 5.145 5.145 0 00-2.32 3.654c0 .046-.04.057-.119.034-.063 0-.091-.024-.091-.068q-.649-2.574-1.022-4.117h-4.472v.24q1.267 4.992 1.943 7.565a10.679 10.679 0 01-.119 3.088l-1.054 7.411h4.2l1.117-8.251a18.458 18.458 0 011.318-5.356 2.413 2.413 0 012.36-1.39q2.992 0 2.993 3.465v8.183h-4.317v3.342h8.575zm-41.413-6.4l-1.324 7.342q-.182.977-.527.976l-4.245-8.318h-4.784l7.932 15.044h-7.314v3.256h13.753v-.395l-4.259-7.685q3.025-.1 3.734-3.688l1.322-6.535zm-24.216 0l-.495 11.562q-.089 2.452-.977 3.156a5.641 5.641 0 01-3.026.532L142.59 93.6h-4.319l2.2 15.044h-3.43v3.256H145a9.655 9.655 0 005.147-1.08q2.392-1.632 2.618-6.022l.555-11.2zm-13.993 5.558q0-3.071-1.354-4.392a5.1 5.1 0 00-3.732-1.2 20.2 20.2 0 00-3.176.206v3.275c.823-.09 1.429-.137 1.821-.137q2.183 0 2.182 1.613v10.121h-4.334v3.256h8.592zM124.322 93.6h-4.214v10.044h4.214zm-18.374 15.044v-11.6a29.847 29.847 0 013.006-.1 7.657 7.657 0 013.086.412 2.238 2.238 0 01.994 2.178v9.109zm11.3-9.419q0-3.584-2.3-4.82-1.671-.874-5.991-.874-4.676 0-7.268.274v18.1h15.561z" class="cls-5" transform="translate(-101.687 -93.532)" /></g><g id="logo_Group_19" transform="translate(143.652)"><g id="logo_Group_6"><g id="logo_Group_5" class="cls-6"><path id="logo_Path_6" d="M281.336 113.551c-.057-.3-1.261.7-1.114.193a7.273 7.273 0 00.334-1.543c-.006-.365.068-1.772.068-3.574a22.545 22.545 0 01.387-4.1 16.16 16.16 0 01.6-2.367c.146-.528.566-2.519.566-2.519a1.406 1.406 0 00-.191-.17c-.021 0 .571-2.065.7-2.6a9.29 9.29 0 01.947-2.979c.625-.963.9-.727 1.586-1.26a27.18 27.18 0 012.83-1.6 5.763 5.763 0 00.69-.488l.138.076s.155-.118.279-.226a3.532 3.532 0 01.942-.6c.9-.4 3.173.54 3.173.54s-.008-.273 0-.438 0-.224.033-.232.051.142.223.4c.206.315.351.233.351.233s.136-.159.247-.073l.021.014c.17.1.96.4 1.765.764a12.833 12.833 0 012.359 1.375 6.005 6.005 0 011.823 3.648 22.279 22.279 0 00.772 3.026l-.228.149a10.065 10.065 0 01.226 1.042 6.813 6.813 0 001.013 2.622 8.918 8.918 0 011.257 3.239 16.982 16.982 0 001.209 3.333c.224.448.181.344.35.728.011.028.291.59.306.626a6.464 6.464 0 00.521 1.4 5.036 5.036 0 01.578 1.49 2.125 2.125 0 01-.191 1.55c-.179.311-.251.155-.46.305s-.349-.079-.454-.087c-.143-.019-.2.026-.359 0s-.378-.092-.506-.019c-.255.144-.846.219-.931.018a7.656 7.656 0 01-.056-1 2.032 2.032 0 01.271-1.344c.251-.443.037-.374-.126-.991a3.743 3.743 0 00-.355-.6 31.883 31.883 0 00-1.78-3.676 9.671 9.671 0 01-1.581-3.387 23.4 23.4 0 00-1.685-3.663 11.4 11.4 0 00-.53 2.817c.015-.1.367 7.339.629 8.115a26.307 26.307 0 01.753 6.088 35.287 35.287 0 00.11 6.217c.314 1.7.939 5.389 1.214 7.056s.945 6.817.945 6.817l-.5.267a2.938 2.938 0 01.193.363 11.935 11.935 0 01.108 1.209 12.08 12.08 0 00.356 1.745 2.113 2.113 0 01.006 1.5 1.489 1.489 0 01-1.372 1.054 2 2 0 01-1.8-.711c-.433-.482-.093-1.8 0-2.215a4.909 4.909 0 00-.3-1.547 2.249 2.249 0 01-.678.26c-.162-.017-.249-.919-.23-1.179s-.9-4.789-1.171-6.307-1.252-6.005-1.545-6.807-1.963-6.51-2.179-7.3-.41-.591-.723-.117-.433 4.239-.52 5.258-.551 3.922-.667 5.027.155 4.234.2 5.258.144 3.974.071 4.685-.321 2.957-.321 2.957l-.34-.007s-.051.728-.117 1.386a.965.965 0 01-.617.936c-.22.075-.193.271-.284.7a1.618 1.618 0 01-1.042 1.078 3.112 3.112 0 01-2.045-.411 1.272 1.272 0 01-.6-1.48c.081-.45.734-.857 1-1.435a5.948 5.948 0 00.345-1.613l-.629-.069a10.617 10.617 0 01-.115-2.247c.121-.63-.144-5.747 0-6.973a60.8 60.8 0 00-.072-6.384c-.074-1.425-.194-5.977-.069-7.949s-.528-4.335.093-6.5c.1-2.586.476-5.132.381-5.96s-.407-3.8-.407-3.8l.1.262s-.52-.241-.544-.245.334-.6.095-.14c-.281.537-.652 2.528-.881 3.132a17.157 17.157 0 00-.64 2.855 14.353 14.353 0 01-.524 2.545c-.185.468-.774 2.806-.842 3.242" class="cls-5" transform="translate(-275.057 -82.384)" /><path id="logo_Path_7" d="M276.218 120.947l.709.492a.245.245 0 00.356-.056l.342-.5a.255.255 0 00-.075-.354l-.642-.447a1.508 1.508 0 011.729 1.133c.317 1.365-.506.951-.506.951s-1.832.689-1.914-1.216" class="cls-5" transform="translate(-274.172 -89.128)" /></g></g><path id="logo_Rectangle_5" d="M0 0h1.28v3.726H0z" class="cls-5" transform="rotate(-53 34.92 12.908)" /><g id="logo_Group_8"><g id="logo_Group_7" class="cls-6"><path id="logo_Path_8" d="M284.175 127l-.667-.549a.246.246 0 01-.046-.358l.411-.485a.254.254 0 01.362-.026l.606.5a1.369 1.369 0 00-1.562-1.359c-1.4.071-.784.613-.784.613s-.1 1.949 1.681 1.664" class="cls-5" transform="translate(-275.534 -90.16)" /></g></g><path id="logo_Rectangle_7" d="M0 0h1.279v3.728H0z" class="cls-5" transform="rotate(-53 35.55 12.593)" /><g id="logo_Group_10"><g id="logo_Group_9" class="cls-6"><path id="logo_Path_9" d="M297.073 83.019a4.131 4.131 0 00.085-2.014c-.991-3.171-4.354-2.014-4.893-1.9s-1.056 1.69-1.25 1.782-.775.231-.795.764.751.139.711.3-.046.857.107 1a.308.308 0 01.043.347l-.024.765c-.279.763.453 2.962.453 2.962l.121.586c-.441.331-1.209.837-1.119 1.31l6.264-.748a2 2 0 01-.871-.939c-.042-.556.133-1.8.455-1.921s.6-.695.6-.695a1.254 1.254 0 00.108-1.6" class="cls-5" transform="translate(-277.278 -79.974)" /></g></g><g id="logo_Group_12" transform="translate(1.664 26.013)"><g id="logo_Group_11" clip-path="url(#logo_clip-path-5)"><path id="logo_Path_10" d="M284.893 103.481l.069-.042-.017-.213a5.117 5.117 0 00-.052.255m-1.258 5.314c.572-.9 1.024-4.045 1.258-5.314-.1.064-.17.116-.164-.072 0 0 .107-.158.209-.3l-.014-.174-2.82.224a6.921 6.921 0 010 1.749 24.416 24.416 0 01-1.057 3.163 5.837 5.837 0 00-.456 2.457 39.518 39.518 0 01-.45 4.14c-.1.75-.339 1.642-.4 1.907a18.426 18.426 0 01-.466 2.351c-.192.407.486.725.634 1.085s.478.4.6.65.746.444.7.12a4.887 4.887 0 01-.077-1.522c.1-.487.192.378.373.865s.526 0 .526 0a6.2 6.2 0 01.109-1.208 7.7 7.7 0 00-.084-2.413 6.747 6.747 0 01.02-2.39c.366-.749 1.325-4.447 1.558-5.316" class="cls-5" transform="translate(-276.507 -111.339)" /></g></g><g id="logo_Group_14"><g id="logo_Group_13" class="cls-6"><path id="logo_Path_11" d="M312.538 120.483c.173-.035.992-.027 1.15.327a33.707 33.707 0 010 3.993l-.8-.065v-2.814s-.313-.29-.545-.272-.4-.289-.324-.494.2-.609.523-.675" class="cls-5" transform="translate(-282.109 -89.217)" /><path id="logo_Path_12" d="M310.39 121.131c-.184-.033-1.044-.027-1.208.329a31.749 31.749 0 000 3.991l.843-.064.027-3.019a1.917 1.917 0 01.547-.069c.033-.007.07-.016.108-.021a3.207 3.207 0 01.441-.108c.259-.021.32.286.662-.11a3.769 3.769 0 00-1.42-.93" class="cls-5" transform="translate(-281.468 -89.361)" /></g></g><path id="logo_Path_13" d="M305.134 124.7l-1.593 1.722v3.078h10.432l3.638-1.59v-3.24l-1.487-1.907-1.753-.213z" class="cls-5" transform="translate(-280.233 -89.679)" /><g id="logo_Group_16"><g id="logo_Group_15" class="cls-6"><path id="logo_Path_14" d="M290.284 91.276a56.446 56.446 0 013.115 7.733c.038.121.587.06.587.06s2.532-7.542 3.217-8.159c.388-.35-.946-.638-.946-.638s-2.339 5.59-2.609 6.751c-.11.473-1.461-4.619-2.268-5.857-.661-1.015-1.1.11-1.1.11" class="cls-4" transform="translate(-277.292 -82.518)" /><path id="logo_Path_15" d="M16.411 16.71a.19.19 0 100-.38.19.19 0 000 .38z" stroke-width=".202" stroke="#12255b" fill="none" /></g></g><path id="logo_Line_1" d="M16.411 16.726v.344" stroke-width=".29" stroke="#12255b" fill="none" /><g id="logo_Group_18"><g id="logo_Group_17" class="cls-6"><path id="logo_Path_16" d="M294.261 105.187a1.451 1.451 0 10-1.446-1.452 1.449 1.449 0 001.446 1.452" class="cls-4" transform="translate(-277.854 -85.183)" /><path id="logo_Path_17" d="M294.617 102.327a.2.2 0 000-.4.2.2 0 000 .4" class="cls-4" transform="translate(-278.21 -85.104)" /><path id="logo_Path_18" d="M291.418 91.345a3.819 3.819 0 01-.323-.663c-.013-.135-.931.311-.864.582a.6.6 0 00.391.366z" class="cls-4" transform="translate(-277.28 -82.603)" /></g></g></g></symbol><clipPath id="logo_clip-path"><path id="logo_Path_3" d="M94.7 80.494s-5.715 0-5.715 5.737v27.929s0 5.741 5.715 5.741h175.57s5.715 0 5.715-5.741V86.23s0-5.737-5.715-5.737z" class="cls-1" transform="translate(-88.98 -80.494)" /></clipPath><clipPath id="logo_clip-path-2"><path id="logo_Rectangle_4" d="M0 0h37.744v39.82H0z" class="cls-1" /></clipPath><clipPath id="logo_clip-path-5"><path id="logo_Rectangle_9" d="M0 0h9.984v12.117H0z" class="cls-1" /></clipPath><symbol viewBox="0 0 14.061 19.716" id="map-marker-icon"><defs><style>#map-marker-icon .prefix__cls-1{fill:#4a4a4a;stroke:#4a4a4a;stroke-width:.3px}</style></defs><g id="map-marker-icon_prefix__location-icon" transform="translate(.15 .15)"><g id="map-marker-icon_prefix__Group_12"><g id="map-marker-icon_prefix__Group_11"><path id="map-marker-icon_prefix__Path_13" d="M82.881 0A6.861 6.861 0 0076 6.826a6.771 6.771 0 001.027 3.589l5.462 8.732a.574.574 0 00.487.269.574.574 0 00.487-.277l5.323-8.816a6.777 6.777 0 00.971-3.5A6.861 6.861 0 0082.881 0zm4.926 9.739l-4.839 8.015L78 9.816a5.648 5.648 0 01-.863-2.99 5.74 5.74 0 0111.479 0 5.649 5.649 0 01-.809 2.913z" class="prefix__cls-1" transform="translate(-76)" /></g></g><g id="map-marker-icon_prefix__Group_14" transform="translate(3.44 3.413)"><g id="map-marker-icon_prefix__Group_13"><path id="map-marker-icon_prefix__Path_14" d="M169.44 90a3.413 3.413 0 103.44 3.413A3.431 3.431 0 00169.44 90zm0 5.7a2.283 2.283 0 112.3-2.283 2.294 2.294 0 01-2.3 2.283z" class="prefix__cls-1" transform="translate(-166 -90)" /></g></g></g></symbol><symbol viewBox="0 0 28.745 18.292" id="menu-left-icon"><defs></defs><g fill="#323f96" clip-path="url(#menu-left-icon_a)"><path d="M0 0h28.745v2H0zM0 8.146h28.745v2H0zM0 16.292h14v2H0z" /></g></symbol><clipPath id="menu-left-icon_a"><path fill="none" d="M0 0h28.745v18.292H0z" /></clipPath><symbol viewBox="0 0 28 28" id="negishut-icon"><defs><style>#negishut-icon .cls-2{fill:#fff}</style></defs><g id="negishut-icon_Group_3508" transform="translate(-1046 -7512)"><rect id="negishut-icon_Rectangle_831" width="28" height="28" rx="5" transform="translate(1046 7512)" fill="#4a4a4a" /><g id="negishut-icon_XMLID_28_" transform="translate(1053.24 7517.246)"><path id="negishut-icon_XMLID_31_" d="M178.455 3.263a1.631 1.631 0 10-1.632-1.631 1.632 1.632 0 001.632 1.631z" class="cls-2" transform="translate(-172.467)" /><path id="negishut-icon_XMLID_30_" d="M55.888 204.4a3.606 3.606 0 11-4.916-4.3v-1.52A5.042 5.042 0 1057 205.519l-.57-1.119z" class="cls-2" transform="translate(-47.38 -191.898)" /><path id="negishut-icon_XMLID_29_" d="M191.324 127.793l-2.185-4.3a.957.957 0 00-.853-.524h-2.8v-.638h2.414a.753.753 0 00.719-.719.718.718 0 00-.719-.718h-2.409v-2.165a1.437 1.437 0 10-2.873 0v4.69a1.466 1.466 0 001.466 1.466h3.616l1.919 3.773a.958.958 0 101.707-.869z" class="cls-2" transform="translate(-178.063 -113.349)" /></g></g></symbol><symbol viewBox="0 0 15.093 14.584" id="order-by-icon"><defs><style>#order-by-icon .cls-1{fill:#323f96;stroke:#323f96;stroke-width:.5px}</style></defs><g id="order-by-icon_Group_3988" transform="translate(.25 -3.418)"><g id="order-by-icon_Layer_2" transform="rotate(-90 5.53 14.238)"><path id="order-by-icon_Path_401" class="cls-1" d="M6.08 15.856a.5.5 0 000-.705l-2.3-2.3h11.778a.5.5 0 100-1H3.794L6.08 9.569a.5.5 0 00-.71-.715L2.189 12.04a.45.45 0 000 .635l3.181 3.181a.5.5 0 00.71 0z" /></g><g id="order-by-icon_Layer_2-2" transform="rotate(90 5.442 9.151)"><path id="order-by-icon_Path_401-2" class="cls-1" d="M4.022.148a.5.5 0 010 .705l-2.3 2.3H13.5a.5.5 0 010 1H1.737l2.285 2.282a.5.5 0 01-.71.715L.131 3.964a.45.45 0 010-.635L3.312.148a.5.5 0 01.71 0z" /></g></g></symbol><symbol viewBox="0 0 14 14" id="phone-icon"><path d="M13.6 9.893L10.538 8.58a.782.782 0 00-.257-.053.744.744 0 00-.508.241l-1.357 1.658a11.775 11.775 0 01-4.845-4.845l1.657-1.356a.742.742 0 00.242-.508.78.78 0 00-.053-.258L4.1.397a.717.717 0 00-.606-.4.794.794 0 00-.146.016L.504.669A.688.688 0 000 1.312 12.686 12.686 0 0012.687 14a.688.688 0 00.639-.509l.658-2.841a.8.8 0 00.016-.148.72.72 0 00-.4-.609z" fill="#fff" /></symbol><symbol viewBox="0 0 15.148 15.148" id="phone-icon--black"><path d="M1.139 10.395l2.986-1.28a.762.762 0 01.251-.051.725.725 0 01.5.235l1.318 1.615a11.479 11.479 0 004.723-4.723L9.302 4.869a.723.723 0 01-.235-.5.76.76 0 01.052-.251l1.28-2.986a.7.7 0 01.59-.387.774.774 0 01.143.016l2.772.64a.67.67 0 01.5.623A12.368 12.368 0 012.029 14.4a.67.67 0 01-.623-.5l-.64-2.77a.779.779 0 01-.016-.142.7.7 0 01.389-.593z" fill="none" stroke="#4a4a4a" stroke-width="1.5" /></symbol><symbol viewBox="0 0 29 29" id="pro-icon"><defs><style>#pro-icon .prefix__cls-8{fill:#fff}#pro-icon .prefix__cls-2{fill:#c4091e}#pro-icon .prefix__cls-3{fill:none}#pro-icon .prefix__cls-6{fill:#12255b}</style></defs><g id="pro-icon_prefix__Mask_Group_57" transform="translate(-1375.499 -1688)"><g id="pro-icon_prefix__Component_1_1" transform="translate(1374.631 1687.263)"><path id="pro-icon_prefix__Rectangle_13" d="M0 0h14.75v30.237H0z" class="prefix__cls-6" transform="translate(15.487)" /><path id="pro-icon_prefix__Rectangle_14" d="M0 0h15.487v30.237H0z" class="prefix__cls-2" /><g id="pro-icon_prefix__Mask_Group_1"><g id="pro-icon_prefix__Group_1" transform="translate(-5.784 1.422)"><path id="pro-icon_prefix__Path_6" d="M281.612 119.4c-.071-.379-1.57.87-1.387.24a9.054 9.054 0 00.416-1.922c-.007-.455.084-2.207.084-4.45a28.066 28.066 0 01.482-5.1 20.119 20.119 0 01.747-2.947c.182-.658.7-3.136.7-3.136a1.75 1.75 0 00-.238-.212c-.026 0 .711-2.571.869-3.234a11.567 11.567 0 011.18-3.709c.778-1.2 1.126-.9 1.975-1.569a33.846 33.846 0 013.524-2 7.176 7.176 0 00.859-.607l.172.1s.194-.147.347-.281a4.4 4.4 0 011.173-.744c1.117-.5 3.951.672 3.951.672s-.01-.34 0-.546 0-.278.041-.288.063.177.278.5c.256.392.437.29.437.29s.17-.2.307-.091a.216.216 0 00.026.017c.212.128 1.195.5 2.2.951a15.978 15.978 0 012.937 1.712c1.413.956 2.255 3.769 2.27 4.542a27.744 27.744 0 00.961 3.767l-.284.185a12.537 12.537 0 01.282 1.3 8.482 8.482 0 001.262 3.265 11.1 11.1 0 011.565 4.033 21.146 21.146 0 001.505 4.15c.278.558.225.428.436.907.014.035.362.735.381.78a8.046 8.046 0 00.648 1.738 6.271 6.271 0 01.72 1.855 2.646 2.646 0 01-.238 1.93c-.223.387-.312.193-.572.38s-.434-.1-.566-.109c-.178-.024-.247.032-.448 0s-.471-.115-.63-.024c-.318.18-1.054.272-1.16.022a9.537 9.537 0 01-.07-1.244 2.53 2.53 0 01.337-1.674c.312-.551.046-.466-.156-1.234a4.664 4.664 0 00-.442-.744c-.307-.433-1.318-3.412-2.217-4.577a12.041 12.041 0 01-1.968-4.217 29.141 29.141 0 00-2.1-4.561 14.193 14.193 0 00-.66 3.508c.019-.126.458 9.138.783 10.1a32.752 32.752 0 01.938 7.58 43.931 43.931 0 00.137 7.74c.391 2.113 1.17 6.71 1.511 8.785s1.176 8.488 1.176 8.488l-.627.333a3.667 3.667 0 01.24.452 14.843 14.843 0 01.135 1.5 15.031 15.031 0 00.443 2.173 2.631 2.631 0 01.008 1.863 1.853 1.853 0 01-1.708 1.312 2.487 2.487 0 01-2.235-.885c-.539-.6-.116-2.244 0-2.758a6.112 6.112 0 00-.369-1.926 2.8 2.8 0 01-.844.324c-.2-.021-.31-1.145-.286-1.467s-1.126-5.962-1.458-7.853-1.559-7.477-1.923-8.475-2.444-8.106-2.713-9.091-.511-.736-.9-.145-.539 5.277-.648 6.547-.686 4.883-.83 6.259.194 5.272.249 6.547.18 4.948.089 5.833-.4 3.681-.4 3.681l-.423-.009s-.063.907-.145 1.725a1.2 1.2 0 01-.768 1.166c-.274.094-.24.338-.354.866a2.014 2.014 0 01-1.3 1.342 3.875 3.875 0 01-2.547-.511 1.583 1.583 0 01-.752-1.842c.1-.56.914-1.067 1.249-1.787a7.4 7.4 0 00.429-2.008l-.784-.086a13.22 13.22 0 01-.143-2.8c.151-.785-.179-7.156 0-8.682a75.682 75.682 0 00-.09-7.949c-.091-1.774-.242-7.442-.086-9.9s-.657-5.4.115-8.1c.129-3.219.592-6.39.475-7.421s-.507-4.737-.507-4.737l.128.326s-.648-.3-.677-.3.416-.748.118-.174c-.35.669-.812 3.148-1.1 3.9a21.362 21.362 0 00-.8 3.554 17.866 17.866 0 01-.652 3.169c-.23.583-.964 3.494-1.048 4.036" class="prefix__cls-8" transform="translate(-273.794 -79.146)" /><path id="pro-icon_prefix__Path_7" d="M276.218 121.163l.883.613a.305.305 0 00.443-.07l.426-.627a.317.317 0 00-.093-.441l-.8-.557a1.877 1.877 0 012.153 1.41c.4 1.7-.63 1.184-.63 1.184s-2.281.858-2.383-1.513" class="prefix__cls-8" transform="translate(-273.67 -80.092)" /><path id="pro-icon_prefix__Rectangle_4" d="M0 0h46.994v49.579H0z" class="prefix__cls-3" transform="translate(0 1.453)" /><path id="pro-icon_prefix__Rectangle_5" d="M0 0h1.594v4.64H0z" class="prefix__cls-8" transform="rotate(-53 44.936 16.797)" /><path id="pro-icon_prefix__Path_8" d="M284.62 127.561l-.831-.684a.307.307 0 01-.057-.445l.512-.6a.316.316 0 01.45-.032l.754.622a1.705 1.705 0 00-1.945-1.693c-1.739.088-.976.764-.976.764s-.126 2.427 2.093 2.072" class="prefix__cls-8" transform="translate(-273.861 -80.237)" /><path id="pro-icon_prefix__Rectangle_6" d="M0 0h46.994v49.579H0z" class="prefix__cls-3" transform="translate(0 1.453)" /><path id="pro-icon_prefix__Rectangle_7" d="M0 0h1.593v4.641H0z" class="prefix__cls-8" transform="rotate(-53 45.717 16.405)" /><path id="pro-icon_prefix__Path_9" d="M298.752 84.052a5.144 5.144 0 00.106-2.507c-1.233-3.948-5.421-2.508-6.093-2.362s-1.315 2.1-1.556 2.218-.965.288-.989.951.936.173.886.374-.057 1.067.133 1.239a.383.383 0 01.054.432l-.03.952c-.347.95.564 3.688.564 3.688l.151.729c-.549.412-1.506 1.043-1.393 1.631l7.8-.931A2.486 2.486 0 01297.3 89.3c-.052-.692.166-2.247.567-2.392s.753-.865.753-.865a1.562 1.562 0 00.134-1.988" class="prefix__cls-8" transform="translate(-274.106 -78.807)" /><path id="pro-icon_prefix__Rectangle_8" d="M0 0h46.994v49.579H0z" class="prefix__cls-3" transform="translate(0 1.453)" /><path id="pro-icon_prefix__Path_10" d="M286.278 103.616c.026-.017.058-.034.086-.052l-.021-.265c-.021.094-.044.2-.065.317m-1.566 6.617c.712-1.125 1.275-5.036 1.566-6.617-.12.079-.212.144-.2-.09 0 0 .133-.2.26-.378l-.018-.217-3.511.279a8.614 8.614 0 010 2.178 30.4 30.4 0 01-1.315 3.938 7.268 7.268 0 00-.568 3.059 49.218 49.218 0 01-.56 5.154c-.128.933-.422 2.044-.5 2.375a22.939 22.939 0 01-.58 2.928c-.239.507.6.9.789 1.351s.595.494.747.809.928.553.871.149a6.084 6.084 0 01-.1-1.895c.129-.607.239.471.465 1.077s.655 0 .655 0a7.722 7.722 0 01.136-1.5 9.587 9.587 0 00-.1-3 8.4 8.4 0 01.025-2.976c.455-.933 1.65-5.536 1.94-6.618" class="prefix__cls-8" transform="translate(-273.764 -79.559)" /><path id="pro-icon_prefix__Rectangle_9" d="M0 0h12.431v15.087H0z" class="prefix__cls-3" transform="translate(2.072 33.841)" /><path id="pro-icon_prefix__Path_11" d="M312.671 120.487c.216-.044 1.235-.034 1.432.407a41.972 41.972 0 010 4.972l-1-.081v-3.5s-.39-.361-.678-.338-.5-.36-.4-.615.247-.758.651-.84" class="prefix__cls-8" transform="translate(-274.784 -80.105)" /><path id="pro-icon_prefix__Path_12" d="M310.7 121.134c-.229-.041-1.3-.033-1.5.409a39.528 39.528 0 000 4.97l1.05-.079.033-3.759a2.387 2.387 0 01.681-.086c.041-.009.087-.02.135-.026a3.989 3.989 0 01.549-.134c.322-.027.4.356.825-.137a4.693 4.693 0 00-1.768-1.158" class="prefix__cls-8" transform="translate(-274.695 -80.125)" /><path id="pro-icon_prefix__Rectangle_10" d="M0 0h46.994v49.579H0z" class="prefix__cls-3" transform="translate(0 1.453)" /><path id="pro-icon_prefix__Path_13" d="M305.525 125.232l-1.984 2.144v3.824h12.989l4.529-1.98v-4.034l-1.851-2.374-2.182-.265z" class="prefix__cls-8" transform="translate(-274.521 -80.17)" /><path id="pro-icon_prefix__Path_14" d="M290.284 91.522a70.273 70.273 0 013.879 9.628c.047.15.731.075.731.075s3.153-9.39 4-10.159c.483-.436-1.178-.795-1.178-.795s-2.913 6.96-3.248 8.405c-.137.589-1.819-5.751-2.823-7.292-.824-1.264-1.365.137-1.365.137" class="prefix__cls-6" transform="translate(-274.108 -79.164)" /><path id="pro-icon_prefix__Path_15" d="M20.433 22.257a.237.237 0 100-.473.237.237 0 000 .473z" stroke-width=".202" stroke="#12255b" fill="none" /><path id="pro-icon_prefix__Rectangle_11" d="M0 0h46.994v49.579H0z" class="prefix__cls-3" transform="translate(0 1.453)" /><path id="pro-icon_prefix__Line_1" d="M20.433 22.278v.429" stroke-width=".29" stroke="#12255b" fill="none" /><path id="pro-icon_prefix__Path_16" d="M294.615 105.9a1.806 1.806 0 10-1.8-1.808 1.8 1.8 0 001.8 1.808" class="prefix__cls-6" transform="translate(-274.187 -79.538)" /><path id="pro-icon_prefix__Path_17" d="M294.665 102.424a.247.247 0 000-.493.247.247 0 000 .493" class="prefix__cls-6" transform="translate(-274.237 -79.527)" /><path id="pro-icon_prefix__Path_18" d="M291.71 91.514a4.754 4.754 0 01-.4-.826c-.017-.168-1.159.387-1.076.724a.743.743 0 00.487.456z" class="prefix__cls-6" transform="translate(-274.106 -79.176)" /><path id="pro-icon_prefix__Rectangle_12" d="M0 0h46.994v49.579H0z" class="prefix__cls-3" transform="translate(0 1.453)" /></g></g></g></g></symbol><clipPath id="pro-icon_prefix__clip-path"><rect id="pro-icon_prefix__Rectangle_1104" width="29" height="29" rx="6" transform="translate(1375.499 1688)" stroke="#707070" fill="#fff" /></clipPath><clipPath id="pro-icon_prefix__clip-path-2"><path d="M0 0h30.237v30.237H0z" class="prefix__cls-3" /></clipPath><clipPath id="pro-icon_prefix__clip-path-3"><path id="pro-icon_prefix__Rectangle_17" d="M0 0h30.237v30.237H0z" class="prefix__cls-2" /></clipPath><symbol viewBox="0 0 14.397 20.023" id="pro-necklace-icon"><path d="M.482 1.023a62.982 62.982 0 002.512 7.086 66.2 66.2 0 003.934 7.466c.058.188.9.094.9.094s2.019-3.772 3.754-7.56c1.282-2.8 2.4-6.619 2.278-7.086.017.01-2.03 0-2.03 0a36.181 36.181 0 01-1.7 6.153c-1.13 2.868-2.4 5.317-2.825 5.317s-1.613-2.136-2.873-5.317a27.642 27.642 0 01-1.625-6.153" stroke="transparent" stroke-miterlimit="10" fill="#4a4a4a" /><path d="M7.389 20.023a2.25 2.25 0 10-2.226-2.252 2.239 2.239 0 002.226 2.252" fill="#4a4a4a" /></symbol><symbol viewBox="0 0 16.629 21.746" id="protection-icon"><g fill="none"><path d="M8.314 0C5.2 2.6 3.248 2.718 0 2.718V13.17c0 4.171 2.959 5.259 8.314 8.576 5.355-3.317 8.314-4.405 8.314-8.576V2.718c-3.247 0-5.199-.118-8.314-2.718z" /><path d="M8.314 2.52C6.061 4.1 4.194 4.55 2 4.675v8.496c0 1.362.41 2.062 1.026 2.694.867.888 2.337 1.769 4.2 2.883.34.204.706.423 1.088.654.383-.23.748-.45 1.09-.654 1.862-1.114 3.332-1.995 4.199-2.883.616-.632 1.026-1.332 1.026-2.694V4.674c-2.195-.123-4.061-.575-6.315-2.153m0-2.521c3.115 2.597 5.067 2.718 8.315 2.718V13.17c0 4.17-2.96 5.259-8.315 8.576C2.96 18.429 0 17.34 0 13.17V2.718c3.248 0 5.2-.121 8.314-2.718z" fill="#4a4a4a" /></g><path d="M7.247 13.931l-3.589-3.428 1.286-1.261 2.3 2.165 4.558-4.565 1.287 1.262-5.842 5.827z" stroke="#4a4a4a" stroke-width=".5" fill="#4a4a4a" /></symbol><symbol viewBox="0 0 11.355 19" id="question-mark-icon"><g transform="translate(-340.276 -330)" fill="#4a4a4a"><path d="M345.442 343.994c-.654 0-1.078-.45-1.078-1.149 0-1.908.503-2.756 2.689-4.535 1.507-1.22 2.18-2.008 2.18-3.456 0-1.661-1.385-2.868-3.294-2.868-1.778 0-2.9.75-3.64 2.43-.31.675-.564.892-1.044.892-.542 0-.879-.364-.879-.95 0-1.001.601-2.147 1.57-2.991.98-.84 2.32-1.267 3.98-1.267 3.352 0 5.605 1.91 5.605 4.754 0 1.735-.715 2.925-2.73 4.55-1.759 1.423-2.095 1.939-2.252 3.445-.11.78-.461 1.145-1.107 1.145z" /><path d="M345.442 343.894c.594 0 .905-.326 1.008-1.059.16-1.539.503-2.064 2.288-3.51 1.988-1.602 2.693-2.772 2.693-4.47 0-2.785-2.213-4.655-5.506-4.655-1.635 0-2.952.418-3.914 1.242-.947.826-1.535 1.943-1.535 2.915 0 .533.291.85.78.85.385 0 .627-.124.952-.83.757-1.723 1.908-2.49 3.731-2.49.952 0 1.818.3 2.437.848.617.545.957 1.297.957 2.12 0 1.478-.715 2.317-2.217 3.532-2.156 1.755-2.652 2.589-2.652 4.458 0 .637.384 1.05.978 1.05m0 .2c-.71 0-1.178-.498-1.178-1.25 0-1.916.511-2.81 2.726-4.613 1.56-1.263 2.143-2.03 2.143-3.378 0-1.561-1.306-2.768-3.194-2.768-1.731 0-2.824.724-3.548 2.37-.327.71-.61.952-1.136.952-.61 0-.979-.426-.979-1.05 0-1.037.61-2.2 1.604-3.066.993-.852 2.356-1.292 4.045-1.292 3.378 0 5.706 1.945 5.706 4.854 0 1.803-.795 3.038-2.768 4.627-1.717 1.391-2.058 1.874-2.214 3.378-.114.81-.483 1.235-1.207 1.235z" fill="#fff" /><rect width="2.111" height="2.111" rx="1.056" transform="translate(344.418 346.889)" /></g></symbol><symbol viewBox="0 0 22.39 22.391" id="search-icon"><g fill="none" stroke="#4a4a4a" stroke-width="2" transform="translate(1 1)"><circle cx="8.878" cy="8.878" r="8.878" /><path d="M19.975 19.975l-4.658-4.658" stroke-linecap="round" /></g></symbol><symbol viewBox="0 0 27.032 21.605" id="send-icon"><g fill="none" stroke="#fff" stroke-miterlimit="10"><path d="M2.694 10.802l22.26 8.9-4.454-8.93 4.454-8.87z" stroke-width="2" /><path d="M20.453 10.804H4.4" stroke-width="1.5" /></g></symbol><symbol viewBox="0 0 17.875 13.432" id="shekel-icon"><path d="M1.023 12.933a.5.5 0 01-.375-.155.5.5 0 01-.152-.37V1.023A.5.5 0 01.648.642.524.524 0 011.018.5h5.988a6.248 6.248 0 014.359 1.306A5.322 5.322 0 0112.781 5.9v2.591a.5.5 0 01-.152.37.5.5 0 01-.37.152h-1.721a.5.5 0 01-.37-.152.5.5 0 01-.152-.37V5.922q0-3.114-3.114-3.114H3.266v9.6a.524.524 0 01-.142.37.5.5 0 01-.381.152zm4.594 0a.5.5 0 01-.369-.155.5.5 0 01-.152-.37V4.942a.5.5 0 01.152-.381.524.524 0 01.37-.142h1.72a.515.515 0 01.381.142.515.515 0 01.142.381v5.683h3.636q3.114 0 3.114-3.114V1.023a.5.5 0 01.152-.37.5.5 0 01.37-.152h1.715a.515.515 0 01.381.142.515.515 0 01.142.381v6.51a5.322 5.322 0 01-1.411 4.093 6.248 6.248 0 01-4.355 1.306z" fill="#083799" stroke="#f6f6f8" /></symbol><symbol viewBox="0 0 11.969 11.896" id="star-blue"><path d="M5.985 9.864L2.287 11.9l.706-4.3-2.997-3.056 4.14-.628L5.985 0l1.849 3.916 4.135.628-2.992 3.048.706 4.3z" fill="#293169" /></symbol><symbol viewBox="0 0 11.969 11.896" id="star-blur"><path d="M5.985 9.864L2.287 11.9l.706-4.3-2.997-3.056 4.14-.628L5.985 0l1.849 3.916 4.135.628-2.992 3.048.706 4.3z" fill="#707070" /></symbol><symbol viewBox="0 0 11.969 11.896" id="star-empty"><g fill="none" stroke-miterlimit="10"><path d="M5.984 9.864L2.286 11.9l.706-4.3-2.997-3.056 4.14-.628L5.984 0l1.849 3.916 4.135.628-2.992 3.048.706 4.3z" /><path d="M8.363 10.03l-.374-2.276-.082-.5.356-.363L9.885 5.24l-2.202-.334-.527-.08-.227-.482-.945-2.001-.945 2-.227.483-.527.08-2.202.334 1.623 1.65.355.362-.082.5-.374 2.277 1.897-1.043.482-.264.482.264 1.897 1.043m1.32 1.866l-3.7-2.031-3.698 2.032.706-4.304L0 4.544l4.135-.628L5.984 0l1.85 3.916 4.134.628-2.992 3.048.706 4.304z" fill="#e0e1eb" /></g></symbol><symbol viewBox="0 0 11.969 11.896" id="star-empty-blur"><g fill="none" stroke-miterlimit="10"><path d="M5.984 9.864L2.286 11.9l.706-4.3-2.997-3.056 4.14-.628L5.984 0l1.849 3.916 4.135.628-2.992 3.048.706 4.3z" /><path d="M8.363 10.03l-.374-2.276-.082-.5.356-.363L9.885 5.24l-2.202-.334-.527-.08-.227-.482-.945-2.001-.945 2-.227.483-.527.08-2.202.334 1.623 1.65.355.362-.082.5-.374 2.277 1.897-1.043.482-.264.482.264 1.897 1.043m1.32 1.866l-3.7-2.031-3.698 2.032.706-4.304L0 4.544l4.135-.628L5.984 0l1.85 3.916 4.134.628-2.992 3.048.706 4.304z" fill="#707070" /></g></symbol><symbol viewBox="0 0 11.969 11.896" id="star-empty-in-rank"><g fill="#e0e1eb" stroke-miterlimit="10"><path d="M5.984 9.864L2.286 11.9l.706-4.3-2.997-3.056 4.14-.628L5.984 0l1.849 3.916 4.135.628-2.992 3.048.706 4.3z" /><path d="M8.363 10.03l-.374-2.276-.082-.5.356-.363L9.885 5.24l-2.202-.334-.527-.08-.227-.482-.945-2.001-.945 2-.227.483-.527.08-2.202.334 1.623 1.65.355.362-.082.5-.374 2.277 1.897-1.043.482-.264.482.264 1.897 1.043m1.32 1.866l-3.7-2.031-3.698 2.032.706-4.304L0 4.544l4.135-.628L5.984 0l1.85 3.916 4.134.628-2.992 3.048.706 4.304z" /></g></symbol><symbol viewBox="0 0 11.969 11.896" id="star-half-blue"><defs></defs><g fill="none" stroke-miterlimit="10"><path d="M5.984 9.864L2.286 11.9l.706-4.3-2.997-3.056 4.14-.628L5.984 0l1.849 3.916 4.135.628-2.992 3.048.706 4.3z" /><path d="M8.363 10.03l-.374-2.276-.082-.5.356-.363L9.885 5.24l-2.202-.334-.527-.08-.227-.482-.945-2.001-.945 2-.227.483-.527.08-2.202.334L3.706 6.89l.355.362-.082.5-.374 2.277 1.897-1.043.482-.264.482.264 1.897 1.043m1.32 1.866L5.983 9.864l-3.698 2.032.706-4.304L0 4.544l4.135-.628L5.984 0l1.85 3.916 4.134.628-2.992 3.048.706 4.304z" fill="#e0e1eb" /></g><g transform="translate(5.791 -6.193)" clip-path="url(#star-half-blue_a)"><path d="M.194 16.057l-3.698 2.036.706-4.3-2.997-3.056 4.14-.628L.194 6.193l1.849 3.916 4.135.628-2.992 3.048.706 4.3z" fill="#293169" /></g></symbol><clipPath id="star-half-blue_a"><path d="M0 5h5.984v11.9H0z" transform="translate(.194 1.193)" fill="#fff" stroke="#707070" /></clipPath><symbol viewBox="0 0 11.969 11.896" id="star-half-blur"><defs></defs><g fill="none" stroke-miterlimit="10"><path d="M5.984 9.864L2.286 11.9l.706-4.3-2.997-3.056 4.14-.628L5.984 0l1.849 3.916 4.135.628-2.992 3.048.706 4.3z" /><path d="M8.363 10.03l-.374-2.276-.082-.5.356-.363L9.885 5.24l-2.202-.334-.527-.08-.227-.482-.945-2.001-.945 2-.227.483-.527.08-2.202.334L3.706 6.89l.355.362-.082.5-.374 2.277 1.897-1.043.482-.264.482.264 1.897 1.043m1.32 1.866L5.983 9.864l-3.698 2.032.706-4.304L0 4.544l4.135-.628L5.984 0l1.85 3.916 4.134.628-2.992 3.048.706 4.304z" fill="#707070" /></g><g transform="translate(5.791 -6.193)" clip-path="url(#star-half-blur_a)"><path d="M.194 16.057l-3.698 2.036.706-4.3-2.997-3.056 4.14-.628L.194 6.193l1.849 3.916 4.135.628-2.992 3.048.706 4.3z" fill="#707070" /></g></symbol><clipPath id="star-half-blur_a"><path d="M0 5h5.984v11.9H0z" transform="translate(.194 1.193)" fill="#fff" stroke="#707070" /></clipPath><symbol viewBox="0 0 11.969 11.896" id="star-stroke"><g fill="none"><path d="M5.986 9.864L2.288 11.9l.706-4.3-2.997-3.056 4.14-.628L5.986 0l1.849 3.916 4.135.628-2.992 3.048.706 4.3z" /><path d="M8.365 10.03l-.374-2.276-.082-.5.356-.363L9.887 5.24l-2.202-.334-.527-.08-.227-.482-.945-2.001-.945 2-.227.483-.527.08-2.202.334 1.623 1.65.355.362-.082.5-.374 2.277 1.897-1.043.482-.264.482.264 1.897 1.043m1.32 1.866l-3.7-2.031-3.698 2.032.706-4.304L.002 4.544l4.135-.628L5.986 0l1.85 3.916 4.134.628-2.992 3.048.706 4.304z" fill="#e0e1eb" /></g></symbol><symbol viewBox="0 0 19.588 17.96" id="warning-icon"><defs><style>#warning-icon .cls-2{fill:#fff;stroke:#4a4a4a}#warning-icon .cls-3{stroke:none}#warning-icon .cls-5{fill:none}</style></defs><g id="warning-icon_Group_3506" transform="translate(-36.206 -159.54)"><g id="warning-icon_Polygon_9" fill="#fff"><path d="M16.29 16.75H1.71a1.733 1.733 0 01-1.51-.867 1.733 1.733 0 01-.015-1.741l7.29-12.96A1.73 1.73 0 019 .29c.64 0 1.211.333 1.525.892l7.29 12.96a1.733 1.733 0 01-.014 1.741 1.733 1.733 0 01-1.51.867z" class="cls-3" transform="translate(37 160)" /><path d="M9 1.04a.99.99 0 00-.872.51L.838 14.51A1 1 0 001.71 16h14.58a1 1 0 00.872-1.49L9.872 1.55A.99.99 0 009 1.04m0-1.5c.902 0 1.737.488 2.179 1.274l7.29 12.96a2.48 2.48 0 01-.02 2.488A2.476 2.476 0 0116.29 17.5H1.71a2.476 2.476 0 01-2.158-1.238 2.476 2.476 0 01-.021-2.488L6.82.814A2.503 2.503 0 019-.46z" transform="translate(37 160)" fill="#4a4a4a" /></g><g id="warning-icon_Group_3505" transform="translate(0 -1)"><g id="warning-icon_Rectangle_832" class="cls-2" transform="translate(45 166)"><rect width="2" height="6" class="cls-3" rx="1" /><rect width="1" height="5" x=".5" y=".5" class="cls-5" rx=".5" /></g><g id="warning-icon_Ellipse_9" class="cls-2" transform="translate(45 173)"><circle cx="1" cy="1" r="1" class="cls-3" /><circle cx="1" cy="1" r=".5" class="cls-5" /></g></g></g></symbol><symbol viewBox="0 0 12.126 18.914" id="wrench-icon"><path d="M2.859 10.176v5.414a.553.553 0 00.009.1 3.2 3.2 0 006.388 0 .556.556 0 00.009-.1v-5.414a6.825 6.825 0 001.171-1.073 5.669 5.669 0 001.438-3.745 6.222 6.222 0 00-2.9-5.029.559.559 0 00-.286-.079h-.023a.558.558 0 00-.558.558v4.8a4.474 4.474 0 01-4.093 0v-4.8A.558.558 0 003.456.25h-.022a.556.556 0 00-.284.078A6.53 6.53 0 001.689 1.6 5.653 5.653 0 00.248 5.364a6.105 6.105 0 002.611 4.812zm-.347-7.82c.13-.153.262-.291.387-.412v3.969a.559.559 0 00.215.44 5.461 5.461 0 005.9 0 .558.558 0 00.215-.44V1.952c.122.119.249.253.376.4a4.576 4.576 0 011.158 3A4.5 4.5 0 019.62 8.338a5.412 5.412 0 01-1.19 1.051.558.558 0 00-.276.481v6.2a2.176 2.176 0 01-4.174 0v-6.2a.561.561 0 00-.272-.479 5.408 5.408 0 01-1.183-1.053 4.594 4.594 0 01-1.154-2.992 4.486 4.486 0 011.141-2.994z" fill="#4a4a4a" stroke="#28316" stroke-width=".5" /></symbol><symbol viewBox="0 0 12.126 18.914" id="wrench-icon--qualifications"><path d="M2.859 10.176v5.414a.553.553 0 00.009.1 3.2 3.2 0 006.388 0 .556.556 0 00.009-.1v-5.414a6.825 6.825 0 001.171-1.073 5.669 5.669 0 001.438-3.745 6.222 6.222 0 00-2.9-5.029.559.559 0 00-.286-.079h-.023a.558.558 0 00-.558.558v4.8a4.474 4.474 0 01-4.093 0v-4.8A.558.558 0 003.456.25h-.022a.556.556 0 00-.284.078A6.53 6.53 0 001.689 1.6 5.653 5.653 0 00.248 5.364a6.105 6.105 0 002.611 4.812zm-.347-7.82c.13-.153.262-.291.387-.412v3.969a.559.559 0 00.215.44 5.461 5.461 0 005.9 0 .558.558 0 00.215-.44V1.952c.122.119.249.253.376.4a4.576 4.576 0 011.158 3A4.5 4.5 0 019.62 8.338a5.412 5.412 0 01-1.19 1.051.558.558 0 00-.276.481v6.2a2.176 2.176 0 01-4.174 0v-6.2a.561.561 0 00-.272-.479 5.408 5.408 0 01-1.183-1.053 4.594 4.594 0 01-1.154-2.992 4.486 4.486 0 011.141-2.994z" fill="#28316d" stroke="#28316d" stroke-width=".5" /></symbol><symbol viewBox="0 0 92.606 37.937" id="ynet-icon"><defs></defs><g transform="translate(-38.947 1525.141)"><circle cx="18.968" cy="18.968" r="18.968" transform="translate(38.948 -1525.141)" fill="#cc0001" /><ellipse cx="15.759" cy="12.245" rx="15.759" ry="12.245" transform="translate(42.157 -1524.583)" opacity=".5" fill="url(#ynet-icon_a)" /><g clip-path="url(#ynet-icon_b)" transform="translate(38.947 -1525.14)"><path d="M26.993 8.335a.717.717 0 00-.69-1h-2.3a.993.993 0 00-1.034.8l-2.833 11.577c-.268 1.072-.459 2.03-.613 2.72a11.851 11.851 0 00-.345-2.337L15.956 8.181a1.066 1.066 0 00-1.073-.843h-2.527a.686.686 0 00-.69.958l4.9 15.361a.96.96 0 001.034.8h1.3a12.5 12.5 0 01-.651 2.3 5.107 5.107 0 01-2.605 3.409l-.536.268a.925.925 0 00-.459 1.188l.8 1.57a.864.864 0 001.15.422l.842-.384a7.852 7.852 0 004.291-5.516z" fill="#fff" fill-rule="evenodd" /></g><path d="M126.297-1523.337a2.334 2.334 0 00-.637.093l-2.182.63a1.192 1.192 0 00-.824 1.26v4.945h-2.618a1 1 0 00-1.017 1.066v1.309a1 1 0 001.017 1.066h2.618v15.32c0 3.248 1.6 4.9 5.042 4.9a11.247 11.247 0 003.1-.388.977.977 0 00.727-1.26l-.242-1.5a.914.914 0 00-1.115-.775 8.521 8.521 0 01-1.5.194c-1.115 0-1.648-.582-1.648-1.891v-14.592h2.763a1.035 1.035 0 001.018-1.066v-1.309a1.035 1.035 0 00-1.018-1.066h-2.763v-6.114c-.001-.6-.299-.813-.721-.822zm-34.022 6.638c-2.521 0-4.557.969-6.593 3.345l-.485-2.181a1.044 1.044 0 00-1.163-.873h-1.455a1.047 1.047 0 00-1.115 1.018v21.331a1.119 1.119 0 001.115 1.067h2.23a1.076 1.076 0 001.066-1.067v-13.138c0-3.248 2.279-5.721 5.187-5.721 1.988 0 2.763.97 2.763 3.249v15.61a1.119 1.119 0 001.115 1.067h2.23a1.076 1.076 0 001.066-1.067v-16.58c.002-3.637-2.325-6.06-5.961-6.06zm17.806 0c-5.382 0-8.92 4.6-8.92 11.877 0 7.951 3.733 12.072 10.326 12.072a13.492 13.492 0 006.012-1.115.99.99 0 00.63-1.309l-.533-1.551a.95.95 0 00-1.309-.679 14.132 14.132 0 01-4.557.825c-4.266 0-5.769-2.521-5.963-7.03h12.022a1.076 1.076 0 001.066-1.066c0-8.873-3.878-12.024-8.774-12.024zm.146 3.539c3.006 0 4.024 3.151 4.121 6.254h-8.581c.484-5.042 2.714-6.254 4.462-6.254z" fill="#b7b5b6" fill-rule="evenodd" /></g></symbol><linearGradient id="ynet-icon_a" x1=".382" x2=".874" y1=".223" y2="1.234" gradientUnits="objectBoundingBox"><stop offset="0" stop-color="#fff" /><stop offset="1" stop-color="#ce0306" stop-opacity="0" /></linearGradient><clipPath id="ynet-icon_b"><path d="M1241.418-4190.755a18.969 18.969 0 0018.968 18.969 18.968 18.968 0 0018.968-18.969 18.968 18.968 0 00-18.968-18.968 18.969 18.969 0 00-18.968 18.968" transform="translate(-1241.418 4209.723)" /></clipPath><symbol viewBox="0 0 38.583 27.015" id="youtube-icon"><path d="M37.788 4.227a4.834 4.834 0 00-3.4-3.4C31.369 0 19.291 0 19.291 0S7.214 0 4.2.795A4.933 4.933 0 00.8 4.227c-.8 3.019-.8 9.28-.8 9.28s0 6.293.794 9.28a4.835 4.835 0 003.4 3.4c3.051.826 15.1.826 15.1.826s12.077 0 15.1-.795a4.834 4.834 0 003.4-3.4c.794-3.019.794-9.28.794-9.28s.027-6.292-.8-9.311zm0 0" fill="red" /><path d="M15.446 19.292l10.043-5.784-10.043-5.784zm0 0" fill="#fff" /></symbol></defs><use id="account-icon-usage" xlink:href="#account-icon" class="sprite-symbol-usage" /><use id="apple-usage" xlink:href="#apple" class="sprite-symbol-usage" /><use id="arrow-icon-usage" xlink:href="#arrow-icon" class="sprite-symbol-usage" /><use id="arrow-icon-rotated-usage" xlink:href="#arrow-icon-rotated" class="sprite-symbol-usage" /><use id="category-icon-usage" xlink:href="#category-icon" class="sprite-symbol-usage" /><use id="category-icon-light-usage" xlink:href="#category-icon-light" class="sprite-symbol-usage" /><use id="check-mark-usage" xlink:href="#check-mark" class="sprite-symbol-usage" /><use id="clock-icon-usage" xlink:href="#clock-icon" class="sprite-symbol-usage" /><use id="currency-icon--ils-usage" xlink:href="#currency-icon--ils" class="sprite-symbol-usage" /><use id="envelope-icon-usage" xlink:href="#envelope-icon" class="sprite-symbol-usage" /><use id="exit-icon-usage" xlink:href="#exit-icon" class="sprite-symbol-usage" /><use id="exit-icon--blue-usage" xlink:href="#exit-icon--blue" class="sprite-symbol-usage" /><use id="exit-icon--sm-usage" xlink:href="#exit-icon--sm" class="sprite-symbol-usage" /><use id="facebook-icon-usage" xlink:href="#facebook-icon" class="sprite-symbol-usage" /><use id="filter-by-icon-usage" xlink:href="#filter-by-icon" class="sprite-symbol-usage" /><use id="filter-icon-usage" xlink:href="#filter-icon" class="sprite-symbol-usage" /><use id="filtering-icon-usage" xlink:href="#filtering-icon" class="sprite-symbol-usage" /><use id="google-usage" xlink:href="#google" class="sprite-symbol-usage" /><use id="list-icon-usage" xlink:href="#list-icon" class="sprite-symbol-usage" /><use id="location-icon-usage" xlink:href="#location-icon" class="sprite-symbol-usage" /><use id="location-icon--light-usage" xlink:href="#location-icon--light" class="sprite-symbol-usage" /><use id="lock-icon-usage" xlink:href="#lock-icon" class="sprite-symbol-usage" /><use id="logo-usage" xlink:href="#logo" class="sprite-symbol-usage" /><use id="map-marker-icon-usage" xlink:href="#map-marker-icon" class="sprite-symbol-usage" /><use id="menu-left-icon-usage" xlink:href="#menu-left-icon" class="sprite-symbol-usage" /><use id="negishut-icon-usage" xlink:href="#negishut-icon" class="sprite-symbol-usage" /><use id="order-by-icon-usage" xlink:href="#order-by-icon" class="sprite-symbol-usage" /><use id="phone-icon-usage" xlink:href="#phone-icon" class="sprite-symbol-usage" /><use id="phone-icon--black-usage" xlink:href="#phone-icon--black" class="sprite-symbol-usage" /><use id="pro-icon-usage" xlink:href="#pro-icon" class="sprite-symbol-usage" /><use id="pro-necklace-icon-usage" xlink:href="#pro-necklace-icon" class="sprite-symbol-usage" /><use id="protection-icon-usage" xlink:href="#protection-icon" class="sprite-symbol-usage" /><use id="question-mark-icon-usage" xlink:href="#question-mark-icon" class="sprite-symbol-usage" /><use id="search-icon-usage" xlink:href="#search-icon" class="sprite-symbol-usage" /><use id="send-icon-usage" xlink:href="#send-icon" class="sprite-symbol-usage" /><use id="shekel-icon-usage" xlink:href="#shekel-icon" class="sprite-symbol-usage" /><use id="star-blue-usage" xlink:href="#star-blue" class="sprite-symbol-usage" /><use id="star-blur-usage" xlink:href="#star-blur" class="sprite-symbol-usage" /><use id="star-empty-usage" xlink:href="#star-empty" class="sprite-symbol-usage" /><use id="star-empty-blur-usage" xlink:href="#star-empty-blur" class="sprite-symbol-usage" /><use id="star-empty-in-rank-usage" xlink:href="#star-empty-in-rank" class="sprite-symbol-usage" /><use id="star-half-blue-usage" xlink:href="#star-half-blue" class="sprite-symbol-usage" /><use id="star-half-blur-usage" xlink:href="#star-half-blur" class="sprite-symbol-usage" /><use id="star-stroke-usage" xlink:href="#star-stroke" class="sprite-symbol-usage" /><use id="warning-icon-usage" xlink:href="#warning-icon" class="sprite-symbol-usage" /><use id="wrench-icon-usage" xlink:href="#wrench-icon" class="sprite-symbol-usage" /><use id="wrench-icon--qualifications-usage" xlink:href="#wrench-icon--qualifications" class="sprite-symbol-usage" /><use id="ynet-icon-usage" xlink:href="#ynet-icon" class="sprite-symbol-usage" /><use id="youtube-icon-usage" xlink:href="#youtube-icon" class="sprite-symbol-usage" /></svg>